<svg width="299.998" height="299.998" xmlns="http://www.w3.org/2000/svg">

 <g>
  <title>background</title>
  <rect fill="none" id="canvas_background" height="301.998" width="301.998" y="-1" x="-1"/>
 </g>
 <g>
  <title>Layer 1</title>
  <g stroke="null" id="svg_19">
   <g stroke="null" id="svg_1">
    <g stroke="null" id="svg_2">
     <path stroke="null" id="svg_3" d="m148.9959,30.99999c-64.06204,0 -115.99591,52.83161 -115.99591,117.99733c0,65.16493 51.93387,117.99969 115.99591,117.99969s116.00209,-52.83475 116.00209,-117.99969c-0.00077,-65.16572 -51.94006,-117.99733 -116.00209,-117.99733zm-30.18159,82.88062c1.60466,-1.63233 3.70658,-2.4481 5.8085,-2.4481c2.10192,0 4.20229,0.81577 5.80618,2.4481l10.28299,10.45871l0,-3.07665l0,-41.11424c0,-4.61536 3.67642,-8.35516 8.21356,-8.35516s8.21356,3.7398 8.21356,8.35516l0,41.11345l0,3.64226l3.58053,-3.64226l7.25849,-7.38206c1.60466,-1.63233 3.70426,-2.4481 5.80618,-2.4481s4.20383,0.81577 5.8085,2.4481c1.97354,2.00521 2.72367,4.78213 2.26818,7.38206c0,0.00236 -0.00232,0.00393 -0.00232,0.00629c-0.03403,0.18801 -0.09203,0.36895 -0.13843,0.55303c-0.07037,0.28792 -0.14616,0.57348 -0.24901,0.85274c-0.06805,0.18801 -0.14616,0.37131 -0.22891,0.5546c-0.12837,0.29185 -0.27685,0.57112 -0.43925,0.84881c-0.08661,0.14711 -0.16627,0.29343 -0.26293,0.43424c-0.28072,0.41221 -0.58773,0.81184 -0.94888,1.17921l-11.68891,11.89043l-12.83035,13.05155c-1.60621,1.63233 -3.70658,2.44259 -5.80618,2.44259c-0.02011,0 -0.04021,0 -0.06032,0s-0.04176,0 -0.06032,0c-2.0996,0 -4.19997,-0.81026 -5.80618,-2.44259l-12.83035,-13.05155l-11.68891,-11.89043c-0.36115,-0.36737 -0.66816,-0.76542 -0.94501,-1.17685c-0.09821,-0.14475 -0.17864,-0.29343 -0.2668,-0.44053c-0.16008,-0.27533 -0.30701,-0.55303 -0.43539,-0.84094c-0.08429,-0.18801 -0.16472,-0.37367 -0.23277,-0.56483c-0.09821,-0.27376 -0.17245,-0.55067 -0.24283,-0.83072c-0.04795,-0.19352 -0.11059,-0.38153 -0.14461,-0.57741c-0.46245,-2.59678 0.28613,-5.37371 2.262,-7.37891zm93.26923,81.78008l-0.00232,0c0,11.27841 -10.87073,20.11344 -24.75049,20.11344l-76.66193,0c-13.87744,0 -24.75049,-8.83424 -24.75049,-20.11344l0,-54.28379c0,-9.53201 7.77817,-17.29718 18.56306,-19.4786c0.46709,4.70504 2.49322,9.0671 5.82628,12.45605l3.17685,3.23162l-2.8157,0c-5.61826,0 -8.70462,2.84851 -8.70462,3.79094l0,54.28379c0,0.94478 3.08714,3.79094 8.70462,3.79094l76.66425,0c5.61826,0 8.70462,-2.84851 8.70462,-3.79094l0,-54.28379c0,-0.94242 -3.08714,-3.79094 -8.70462,-3.79094l-2.4128,0l3.17917,-3.23398c3.31141,-3.36614 5.33135,-7.6983 5.81236,-12.37187c10.57995,2.29155 18.17175,9.98277 18.17175,19.39915l0,54.28143z"/>
    </g>
   </g>
   <g stroke="null" id="svg_4"/>
   <g stroke="null" id="svg_5"/>
   <g stroke="null" id="svg_6"/>
   <g stroke="null" id="svg_7"/>
   <g stroke="null" id="svg_8"/>
   <g stroke="null" id="svg_9"/>
   <g stroke="null" id="svg_10"/>
   <g stroke="null" id="svg_11"/>
   <g stroke="null" id="svg_12"/>
   <g stroke="null" id="svg_13"/>
   <g stroke="null" id="svg_14"/>
   <g stroke="null" id="svg_15"/>
   <g stroke="null" id="svg_16"/>
   <g stroke="null" id="svg_17"/>
   <g stroke="null" id="svg_18"/>
  </g>
 </g>
</svg>