<svg width="32.008" height="32.008" xmlns="http://www.w3.org/2000/svg">

 <g>
  <title>background</title>
  <rect fill="none" id="canvas_background" height="34.008" width="34.008" y="-1" x="-1"/>
 </g>
 <g>
  <title>Layer 1</title>
  <g stroke="null" transform="rotate(0.12388297915458679 15.440464019772913,16.398080825805977) " id="svg_18">
   <g stroke="null" id="svg_1">
    <path stroke="null" id="svg_2" d="m16.18136,20.09008l6.90407,0l0,1.34177l-6.90407,0l0,-1.34177zm1.53841,-1.22898l5.36566,0l0,-1.34177l-5.36566,0l0,1.34177zm6.49513,-14.91111l-14.47831,0c-1.3062,0 -2.36652,1.10453 -2.36652,2.46263l0,15.69672l1.4095,-1.88314l0,-13.81358c0,-0.6386 0.43881,-1.17842 0.95702,-1.17842l14.47831,0c0.51906,0 0.95702,0.5406 0.95702,1.17842l0,15.87096c0,0.63938 -0.43796,1.1792 -0.95702,1.1792l-12.25862,0l-0.963,1.28343l13.22077,0c1.30534,0 2.36738,-1.10453 2.36738,-2.46263l0,-15.87096c0.00171,-1.3581 -1.06033,-2.46263 -2.36652,-2.46263zm-15.43533,18.33358l0,-2.05815l1.98405,-2.64853l0.65737,-0.87818l0.73335,-0.98007c0.04952,-0.08867 0.11013,-0.17501 0.19209,-0.25669l0.03756,-0.04823l0.01024,0.00622c0.06574,-0.05912 0.13745,-0.11823 0.22197,-0.1719l3.69919,-2.33195c0.25612,-0.16101 0.47809,-0.23802 0.65139,-0.23802c0.35003,0 0.50626,0.31036 0.36027,0.86729l-1.03386,3.98796c-0.02305,0.09256 -0.06488,0.16801 -0.10245,0.2458l0.01537,0.00933l-0.04354,0.05756c-0.0461,0.08245 -0.10159,0.1509 -0.16135,0.21468l-0.75725,1.01196l-3.28684,4.38933l-1.23192,0l3.91176,-5.22317c-0.04952,-0.02411 -0.09818,-0.03656 -0.14684,-0.06689l-0.31332,-0.19601c0,0 -2.76436,3.69161 -4.10812,5.48607l-0.3321,0c-0.51821,0.00078 -0.95702,-0.53982 -0.95702,-1.17842zm4.34375,-6.40937l2.34433,1.45844l0.91007,-3.50959l-3.2544,2.05115zm5.38102,0.41848l4.58194,0l0,-1.34177l-4.58194,0l0,1.34177zm-9.33803,8.3734c0.18355,0.04745 0.37393,0.08089 0.57029,0.08089l0.02561,0l0.96215,-1.28343l-0.65737,0c-0.29453,0.39281 -0.84433,1.12864 -0.90068,1.20253zm13.91912,-17.42429l-8.75494,0l0,1.34177l8.75494,0l0,-1.34177zm-4.58108,6.48093l4.58194,0l0,-1.34099l-4.58194,0l0,1.34099zm-5.43566,-1.34099l-2.17358,0l0,1.34099l2.17358,0l0,-1.34099zm10.0176,-2.57075l-12.19118,0l0,1.34177l12.19118,0l0,-1.34177zm-13.32322,14.93522l1.23107,0l-2.56373,3.42403c-0.02561,0.035 -0.06147,0.06067 -0.09049,0.09256c-0.01878,0.035 -0.03244,0.07156 -0.05635,0.10345c-0.15709,0.21002 -0.40893,0.33447 -0.70091,0.3827c-0.18355,0.05756 -0.37222,0.09723 -0.56517,0.09723c-0.3321,0 -0.66505,-0.08634 -0.95788,-0.26913l-1.00056,-0.62305c-0.47723,-0.2948 -0.73335,-0.77472 -0.74103,-1.26709c-0.04781,-0.25202 -0.00427,-0.49704 0.14513,-0.69694c0.02049,-0.02878 0.05037,-0.04978 0.07513,-0.07467c0.02476,-0.04123 0.04354,-0.08323 0.07257,-0.12134l1.37876,-1.84114l1.38133,-1.84425l0,0.17501c0,1.15197 0.76664,2.11571 1.79624,2.38173c-0.01024,0.014 -0.16477,0.22013 -0.16477,0.22013l0.44821,0.27769l0.31246,-0.41692zm-0.65908,1.1442l-2.41006,-1.49967l-0.92031,1.22742c0.26807,0.04823 0.54553,0.14701 0.8025,0.30802l1.00056,0.62305c0.25868,0.15946 0.4593,0.35858 0.607,0.56938l0.92031,-1.2282zm3.96469,-18.64861l-2.17358,0l0,1.34177l2.17358,0l0,-1.34177z"/>
   </g>
   <g stroke="null" id="svg_3"/>
   <g stroke="null" id="svg_4"/>
   <g stroke="null" id="svg_5"/>
   <g stroke="null" id="svg_6"/>
   <g stroke="null" id="svg_7"/>
   <g stroke="null" id="svg_8"/>
   <g stroke="null" id="svg_9"/>
   <g stroke="null" id="svg_10"/>
   <g stroke="null" id="svg_11"/>
   <g stroke="null" id="svg_12"/>
   <g stroke="null" id="svg_13"/>
   <g stroke="null" id="svg_14"/>
   <g stroke="null" id="svg_15"/>
   <g stroke="null" id="svg_16"/>
   <g stroke="null" id="svg_17"/>
  </g>
 </g>
</svg>