<svg width="512" height="512" xmlns="http://www.w3.org/2000/svg">

 <g>
  <title>Layer 1</title>
  <g stroke="null" id="svg_19">
   <g stroke="null" id="svg_1">
    <path stroke="null" id="svg_2" d="m423.67277,126.58325l-41.59553,-42.854c-8.53409,-8.79126 -20.10602,-13.72925 -32.17419,-13.72925l-26.65305,0l0,82.03125c0,6.47168 -5.09316,11.71875 -11.375,11.71875l-182,0c-6.28184,0 -11.375,-5.24707 -11.375,-11.71875l0,-82.03125l-22.75,0c-12.56369,0 -22.75,10.49268 -22.75,23.4375l0,328.125c0,12.94409 10.18631,23.4375 22.75,23.4375l318.5,0c12.56369,0 22.75,-10.49341 22.75,-23.4375l0,-261.8335c0,-12.43286 -4.79314,-24.35522 -13.32723,-33.14575zm-32.17277,271.54175l-273,0l0,-140.625l273,0l0,140.625z"/>
    <rect y="70" stroke="null" id="svg_3" height="70.3125" width="45.5" x="232.25"/>
   </g>
   <g stroke="null" id="svg_4"/>
   <g stroke="null" id="svg_5"/>
   <g stroke="null" id="svg_6"/>
   <g stroke="null" id="svg_7"/>
   <g stroke="null" id="svg_8"/>
   <g stroke="null" id="svg_9"/>
   <g stroke="null" id="svg_10"/>
   <g stroke="null" id="svg_11"/>
   <g stroke="null" id="svg_12"/>
   <g stroke="null" id="svg_13"/>
   <g stroke="null" id="svg_14"/>
   <g stroke="null" id="svg_15"/>
   <g stroke="null" id="svg_16"/>
   <g stroke="null" id="svg_17"/>
   <g stroke="null" id="svg_18"/>
  </g>
 </g>
</svg>