<svg width="512" height="512" xmlns="http://www.w3.org/2000/svg">
 <g stroke="null">
  <title>Layer 1</title>
  <circle stroke="null" id="svg_1" fill="#E05B49" r="256" cy="256" cx="256"/>
  <g stroke="null" id="svg_26"/>
  <g stroke="null" id="svg_27"/>
  <g stroke="null" id="svg_28"/>
  <g stroke="null" id="svg_29"/>
  <g stroke="null" id="svg_30"/>
  <g stroke="null" id="svg_31"/>
  <g stroke="null" id="svg_32"/>
  <g stroke="null" id="svg_33"/>
  <g stroke="null" id="svg_34"/>
  <g stroke="null" id="svg_35"/>
  <g stroke="null" id="svg_36"/>
  <g stroke="null" id="svg_37"/>
  <g stroke="null" id="svg_38"/>
  <g stroke="null" id="svg_39"/>
  <g stroke="null" id="svg_40"/>
  <path d="m504.619,316.035l-152.598,-152.603l-0.005,0.005c-24.427,-33.381 -63.888,-55.083 -108.443,-55.083c-74.133,0 -134.24,60.107 -134.24,134.24c0,37.568 15.456,71.52 40.336,95.888l-0.005,0.011l165.552,165.552c93.2,-22.085 166.661,-95.066 189.403,-188.01z" opacity="0.1" id="svg_2" stroke="null"/>
  <g stroke="null" id="svg_49">
   <path stroke="null" d="m181.41394,95.00001l181.31067,0c4.53277,0 8.24139,2.96163 8.24139,6.5814l0,269.83722c0,3.61977 -3.70863,6.5814 -8.24139,6.5814l-255.48322,0c-4.53277,0 -8.24139,-2.96163 -8.24139,-6.5814l0,-207.31396l82.41394,-69.10465l0,-0.00001z" fill="#F5F5F5" id="svg_41"/>
   <path stroke="null" d="m173.17254,164.10466c4.53277,0 8.24139,-2.96163 8.24139,-6.5814l0,-62.52326l-82.41394,69.10465l74.17255,0l0,0.00001z" fill="#E6E6E6" id="svg_42"/>
  </g>
  <g id="svg_46" stroke="null">
   <path d="m420.67701,280.33926c0,-66.46653 -56.78742,-120.33726 -126.83663,-120.33726c-70.05296,0 -126.84038,53.87277 -126.84038,120.33726c0,66.45687 56.78742,120.33574 126.84038,120.33574c70.04921,-0.00203 126.83663,-53.87836 126.83663,-120.33574z" fill="#357180" id="svg_3" stroke="null"/>
   <path d="m365.3977,230.57244c-18.19258,-24.7104 -48.06548,-38.85843 -79.99274,-35.38913c-30.7196,3.33669 -55.51549,22.1821 -67.8224,48.35938c-5.26926,-0.01321 -10.53638,-0.0249 -15.80564,-0.03811c-2.77789,-0.00559 -4.82851,3.04402 -3.26631,5.36756c9.23446,13.74511 18.47107,27.49225 27.70553,41.23735c1.55791,2.32201 4.93669,2.26511 6.49085,-0.02286c9.30676,-13.70141 18.61513,-27.40485 27.92403,-41.10626c1.00522,-1.48009 0.66676,-2.9109 -0.2742,-3.89916c-0.58696,-0.84192 -1.56005,-1.44199 -2.95194,-1.44605c-4.9008,-0.01118 -9.80107,-0.02286 -14.70188,-0.03404c22.60872,-34.08738 77.49119,-37.19796 103.25429,-2.20414c8.25548,11.20715 27.77997,0.50403 19.44041,-10.82455l0,0.00001z" fill="#FFFFFF" id="svg_4" stroke="null"/>
   <path d="m281.3937,280.97388c0,-6.17138 5.26926,-11.17057 11.76975,-11.17057c6.50102,0 11.76975,4.99919 11.76975,11.17057c0,6.16375 -5.26926,11.16295 -11.76975,11.16295c-6.50049,0 -11.76975,-5.00072 -11.76975,-11.16295z" fill="#F7F7F7" id="svg_5" stroke="null"/>
   <path d="m388.95755,311.18344c-9.23446,-13.74511 -18.47321,-27.49225 -27.70981,-41.23735c-1.55791,-2.32201 -4.93669,-2.26511 -6.49085,0.02286c-9.30462,13.70141 -18.61352,27.40485 -27.91975,41.10626c-1.00737,1.48213 -0.66676,2.91293 0.27849,3.90271c0.58482,0.83989 1.55791,1.43843 2.94819,1.44199c4.9008,0.01118 9.80107,0.02286 14.69974,0.03404c-22.61086,34.08331 -77.49119,37.20711 -103.25214,2.20617c-8.2512,-11.20867 -27.77354,-0.50556 -19.43666,10.82455c18.18883,24.7104 48.06334,38.8564 79.98899,35.38913c30.7196,-3.33821 55.51335,-22.18515 67.824,-48.36091c5.26712,0.01321 10.53638,0.0249 15.80564,0.03811c2.77575,0.00762 4.82636,-3.04402 3.26417,-5.36756l-0.00001,0z" fill="#FFFFFF" id="svg_6" stroke="null"/>
   <g id="svg_7" stroke="null"/>
   <g id="svg_8" stroke="null"/>
   <g id="svg_9" stroke="null"/>
   <g id="svg_10" stroke="null"/>
   <g id="svg_11" stroke="null"/>
   <g id="svg_12" stroke="null"/>
   <g id="svg_13" stroke="null"/>
   <g id="svg_14" stroke="null"/>
   <g id="svg_21" stroke="null"/>
   <g id="svg_22" stroke="null"/>
   <g id="svg_23" stroke="null"/>
   <g id="svg_25" stroke="null"/>
   <g id="svg_43" stroke="null"/>
   <g id="svg_44" stroke="null"/>
   <g id="svg_45" stroke="null"/>
  </g>
 </g>

</svg>