<svg width="507.2" height="507.2" xmlns="http://www.w3.org/2000/svg">

 <g>
  <title>background</title>
  <rect fill="none" id="canvas_background" height="602" width="802" y="-1" x="-1"/>
 </g>
 <g>
  <title>Layer 1</title>
  <circle id="svg_1" fill="#F15249" r="253.6" cy="253.6" cx="253.6"/>
  <path id="svg_3" fill="#FFFFFF" d="m373.6,309.6c11.2,11.2 11.2,30.4 0,41.6l-22.4,22.4c-11.2,11.2 -30.4,11.2 -41.6,0l-176,-176c-11.2,-11.2 -11.2,-30.4 0,-41.6l23.2,-23.2c11.2,-11.2 30.4,-11.2 41.6,0l175.2,176.8z"/>
  <path id="svg_4" fill="#D6D6D6" d="m280.8,216l-64.8,64.8l93.6,92.8c11.2,11.2 30.4,11.2 41.6,0l23.2,-23.2c11.2,-11.2 11.2,-30.4 0,-41.6l-93.6,-92.8z"/>
  <path id="svg_5" fill="#FFFFFF" d="m309.6,133.6c11.2,-11.2 30.4,-11.2 41.6,0l23.2,23.2c11.2,11.2 11.2,30.4 0,41.6l-176.8,175.2c-11.2,11.2 -30.4,11.2 -41.6,0l-22.4,-22.4c-11.2,-11.2 -11.2,-30.4 0,-41.6l176,-176z"/>
  <g id="svg_6"/>
  <g id="svg_7"/>
  <g id="svg_8"/>
  <g id="svg_9"/>
  <g id="svg_10"/>
  <g id="svg_11"/>
  <g id="svg_12"/>
  <g id="svg_13"/>
  <g id="svg_14"/>
  <g id="svg_15"/>
  <g id="svg_16"/>
  <g id="svg_17"/>
  <g id="svg_18"/>
  <g id="svg_19"/>
  <g id="svg_20"/>
 </g>
</svg>