<svg width="512" height="512" xmlns="http://www.w3.org/2000/svg">

 <g>
  <title>Layer 1</title>
  <g transform="rotate(-90 256.00000000000006,256.00048828125) " id="svg_27">
   <path id="svg_1" fill="#7A7674" d="m423.342,370.356c12.19,0 22.165,-9.974 22.165,-22.164l0,-239.796c0,-12.19 -9.974,-22.165 -22.165,-22.165l-390.095,0c-12.19,0 -22.165,9.974 -22.165,22.165l0,239.797c0,12.19 9.974,22.165 22.165,22.165l390.095,0l0,-0.002z"/>
   <path id="svg_2" fill="#A2A9AF" d="m478.753,425.767c12.19,0 22.165,-9.974 22.165,-22.164l0,-239.796c0,-12.19 -9.974,-22.165 -22.165,-22.165l-390.095,0c-12.19,0 -22.164,9.974 -22.164,22.165l0,239.797c0,12.19 9.974,22.165 22.164,22.165l390.095,0l0,-0.002z"/>
   <circle id="svg_3" fill="#FFE1D6" r="27.706" cy="246.28" cx="379.013"/>
   <path id="svg_4" fill="#FFFFFF" d="m390.095,294.532l-11.082,14.821l-11.082,-14.821c-25.292,5.134 -44.329,27.494 -44.329,54.301l110.823,0c-0.001,-26.807 -19.038,-49.166 -44.33,-54.301z"/>
   <path id="svg_5" d="m379.013,278.164c21.388,0 38.788,-17.4 38.788,-38.788s-17.4,-38.788 -38.788,-38.788c-21.388,0 -38.788,17.4 -38.788,38.788s17.4,38.788 38.788,38.788zm0,-55.411c9.166,0 16.623,7.457 16.623,16.623s-7.457,16.623 -16.623,16.623c-9.166,0 -16.623,-7.457 -16.623,-16.623s7.457,-16.623 16.623,-16.623z"/>
   <path id="svg_6" d="m379.013,289.246c-36.665,0 -66.494,29.829 -66.494,66.494c0,6.121 4.963,11.082 11.082,11.082c6.12,0 11.082,-4.962 11.082,-11.082c0,-24.443 19.886,-44.329 44.329,-44.329c24.443,0 44.329,19.886 44.329,44.329c0,6.121 4.963,11.082 11.082,11.082c6.12,0 11.082,-4.962 11.082,-11.082c0.002,-36.665 -29.827,-66.494 -66.492,-66.494z"/>
   <path id="svg_7" d="m33.247,359.274l-8.797,0c-0.944,-1.733 -2.285,-5.563 -2.285,-11.082l0,-239.796c0,-6.111 4.971,-11.082 11.082,-11.082l390.095,0c5.519,0 9.349,1.341 11.082,2.285l0,8.797c0,6.121 4.963,11.082 11.082,11.082s11.082,-4.962 11.082,-11.082l0,-11.082c0,-12.843 -13.982,-22.165 -33.247,-22.165l-390.094,0c-18.333,0 -33.247,14.915 -33.247,33.247l0,239.797c0,19.264 9.321,33.247 22.165,33.247l11.082,0c6.12,0 11.082,-4.962 11.082,-11.082c0,-6.122 -4.963,-11.084 -11.082,-11.084z"/>
   <path id="svg_8" d="m478.753,130.561l-390.095,0c-18.332,0 -33.247,14.915 -33.247,33.247l0,239.797c0,18.332 14.914,33.247 33.247,33.247l390.095,0c18.332,0 33.247,-14.915 33.247,-33.247l0,-239.798c0,-18.332 -14.914,-33.246 -33.247,-33.246zm11.083,273.042c0,6.111 -4.971,11.082 -11.082,11.082l-390.096,0c-6.111,0 -11.082,-4.971 -11.082,-11.082l0,-239.796c0,-6.111 4.971,-11.082 11.082,-11.082l390.095,0c6.111,0 11.082,4.971 11.082,11.082l0,239.796l0.001,0z"/>
   <path id="svg_9" d="m257.108,218.577l-124.121,0c-6.12,0 -11.082,4.962 -11.082,11.082c0,6.121 4.963,11.082 11.082,11.082l124.121,0c6.12,0 11.082,-4.962 11.082,-11.082c0,-6.121 -4.962,-11.082 -11.082,-11.082z"/>
   <path id="svg_10" d="m257.108,271.258l-124.121,0c-6.12,0 -11.082,4.962 -11.082,11.082s4.963,11.082 11.082,11.082l124.121,0c6.12,0 11.082,-4.962 11.082,-11.082c0,-6.121 -4.962,-11.082 -11.082,-11.082z"/>
   <path id="svg_11" d="m257.108,326.669l-124.121,0c-6.12,0 -11.082,4.961 -11.082,11.082c0,6.121 4.963,11.082 11.082,11.082l124.121,0c6.12,0 11.082,-4.962 11.082,-11.082c0,-6.121 -4.962,-11.082 -11.082,-11.082z"/>
   <g id="svg_12"/>
   <g id="svg_13"/>
   <g id="svg_14"/>
   <g id="svg_15"/>
   <g id="svg_16"/>
   <g id="svg_17"/>
   <g id="svg_18"/>
   <g id="svg_19"/>
   <g id="svg_20"/>
   <g id="svg_21"/>
   <g id="svg_22"/>
   <g id="svg_23"/>
   <g id="svg_24"/>
   <g id="svg_25"/>
   <g id="svg_26"/>
  </g>
 </g>
</svg>