<svg id="Icons" xmlns="http://www.w3.org/2000/svg" xmlns:xlink="http://www.w3.org/1999/xlink" viewBox="0 0 256 256"><defs><style>.cls-1{fill:none;}.cls-2{clip-path:url(#clip-path);}</style><clipPath id="clip-path"><path class="cls-1" d="M128,218a90,90,0,0,0,0-180Z"/></clipPath></defs><path d="M128,218a90,90,0,0,1,0-180Z"/><g class="cls-2"><rect x="128" y="92.03" width="18" height="18"/></g><g class="cls-2"><rect x="128" y="56.03" width="18" height="18"/></g><g class="cls-2"><path d="M163.32,38H146.68a.68.68,0,0,0-.68.68V55.29a.67.67,0,0,0,.68.68h16.64a.67.67,0,0,0,.68-.68V38.65A.68.68,0,0,0,163.32,38Z"/></g><g class="cls-2"><path d="M163.32,74H146.68a.68.68,0,0,0-.68.68V91.35a.67.67,0,0,0,.68.68h16.64a.68.68,0,0,0,.68-.68V74.71A.68.68,0,0,0,163.32,74Z"/></g><g class="cls-2"><rect x="128" y="164.09" width="18" height="18"/></g><g class="cls-2"><rect x="128" y="128.09" width="18" height="18"/></g><g class="cls-2"><path d="M163.32,110H146.68a.68.68,0,0,0-.68.68v16.64a.67.67,0,0,0,.68.68h16.64a.68.68,0,0,0,.68-.68V110.71A.68.68,0,0,0,163.32,110Z"/></g><g class="cls-2"><path d="M163.32,146.09H146.68a.68.68,0,0,0-.68.68v16.64a.67.67,0,0,0,.68.68h16.64a.68.68,0,0,0,.68-.68V146.77A.68.68,0,0,0,163.32,146.09Z"/></g><g class="cls-2"><rect x="128" y="200.09" width="18" height="18"/></g><g class="cls-2"><path d="M163.32,182.09H146.68a.68.68,0,0,0-.68.68v16.64a.67.67,0,0,0,.68.68h16.64a.68.68,0,0,0,.68-.68V182.77A.68.68,0,0,0,163.32,182.09Z"/></g><g class="cls-2"><path d="M180.87,92H165.13A1.14,1.14,0,0,0,164,93.16V108.9a1.14,1.14,0,0,0,1.13,1.13h15.74A1.14,1.14,0,0,0,182,108.9V93.16A1.14,1.14,0,0,0,180.87,92Z"/></g><g class="cls-2"><path d="M180.87,56H165.13A1.14,1.14,0,0,0,164,57.16V72.9A1.14,1.14,0,0,0,165.13,74h15.74A1.14,1.14,0,0,0,182,72.9V57.16A1.14,1.14,0,0,0,180.87,56Z"/></g><g class="cls-2"><path d="M198.42,74H183.58A1.58,1.58,0,0,0,182,75.61V90.46A1.57,1.57,0,0,0,183.58,92h14.84A1.57,1.57,0,0,0,200,90.46V75.61A1.58,1.58,0,0,0,198.42,74Z"/></g><g class="cls-2"><path d="M216,92H202a2,2,0,0,0-2,2v14a2,2,0,0,0,2,2h14a2,2,0,0,0,2-2V94A2,2,0,0,0,216,92Z"/></g><g class="cls-2"><rect x="182" y="37.97" width="18" height="18"/></g><g class="cls-2"><path d="M180.87,164.09H165.13a1.14,1.14,0,0,0-1.13,1.13V181a1.14,1.14,0,0,0,1.13,1.13h15.74A1.14,1.14,0,0,0,182,181V165.22A1.14,1.14,0,0,0,180.87,164.09Z"/></g><g class="cls-2"><path d="M180.87,128.09H165.13a1.14,1.14,0,0,0-1.13,1.13V145a1.14,1.14,0,0,0,1.13,1.13h15.74A1.14,1.14,0,0,0,182,145V129.22A1.14,1.14,0,0,0,180.87,128.09Z"/></g><g class="cls-2"><path d="M198.42,110H183.58a1.58,1.58,0,0,0-1.58,1.58v14.85a1.57,1.57,0,0,0,1.58,1.57h14.84a1.57,1.57,0,0,0,1.58-1.57V111.61A1.58,1.58,0,0,0,198.42,110Z"/></g><g class="cls-2"><path d="M198.42,146.09H183.58a1.58,1.58,0,0,0-1.58,1.58v14.85a1.57,1.57,0,0,0,1.58,1.57h14.84a1.57,1.57,0,0,0,1.58-1.57V147.67A1.58,1.58,0,0,0,198.42,146.09Z"/></g><g class="cls-2"><path d="M180.87,200H165.13A1.14,1.14,0,0,0,164,201.1v15.74a1.14,1.14,0,0,0,1.13,1.13h15.74a1.14,1.14,0,0,0,1.13-1.13V201.1A1.14,1.14,0,0,0,180.87,200Z"/></g><g class="cls-2"><path d="M198.42,182H183.58a1.58,1.58,0,0,0-1.58,1.58v14.84a1.58,1.58,0,0,0,1.58,1.58h14.84a1.58,1.58,0,0,0,1.58-1.58V183.55A1.58,1.58,0,0,0,198.42,182Z"/></g><g class="cls-2"><path d="M216,164H202a2,2,0,0,0-2,2v14a2,2,0,0,0,2,2h14a2,2,0,0,0,2-2V166A2,2,0,0,0,216,164Z"/></g><g class="cls-2"><path d="M216,128H202a2,2,0,0,0-2,2v14a2,2,0,0,0,2,2h14a2,2,0,0,0,2-2V130A2,2,0,0,0,216,128Z"/></g><g class="cls-2"><rect x="200" y="200.09" width="18" height="18"/></g></svg>