<svg width="41.756" height="41.756" xmlns="http://www.w3.org/2000/svg">

 <g>
  <title>Layer 1</title>
  <g id="svg_18">
   <g id="svg_1">
    <path id="svg_2" d="m27.948,20.878l12.343,-12.342c1.953,-1.953 1.953,-5.119 0,-7.071c-1.951,-1.952 -5.119,-1.952 -7.07,0l-12.343,12.344l-12.343,-12.344c-1.951,-1.952 -5.119,-1.952 -7.07,0c-1.953,1.953 -1.953,5.119 0,7.071l12.342,12.342l-12.342,12.342c-1.953,1.953 -1.953,5.119 0,7.071c0.975,0.977 2.256,1.464 3.535,1.464c1.278,0 2.56,-0.487 3.535,-1.464l12.343,-12.342l12.343,12.343c0.976,0.977 2.256,1.464 3.535,1.464s2.56,-0.487 3.535,-1.464c1.953,-1.953 1.953,-5.119 0,-7.071l-12.343,-12.343z" fill="#df5c4a"/>
   </g>
   <g id="svg_3"/>
   <g id="svg_4"/>
   <g id="svg_5"/>
   <g id="svg_6"/>
   <g id="svg_7"/>
   <g id="svg_8"/>
   <g id="svg_9"/>
   <g id="svg_10"/>
   <g id="svg_11"/>
   <g id="svg_12"/>
   <g id="svg_13"/>
   <g id="svg_14"/>
   <g id="svg_15"/>
   <g id="svg_16"/>
   <g id="svg_17"/>
  </g>
 </g>
</svg>