<svg width="330" height="330" xmlns="http://www.w3.org/2000/svg">

 <g>
  <title>Layer 1</title>
  <g stroke="null" id="svg_16">
   <g stroke="null" id="XMLID_507_">
    <path stroke="null" d="m275.90909,244.77778l-221.81818,0c-6.12514,0 -11.09091,5.19868 -11.09091,11.61111s4.96577,11.61111 11.09091,11.61111l221.81818,0c6.12514,0 11.09091,-5.19868 11.09091,-11.61111s-4.96577,-11.61111 -11.09091,-11.61111z" id="XMLID_508_"/>
    <path stroke="null" d="m275.90909,198.33333l-110.90909,0c-6.12514,0 -11.09091,5.19868 -11.09091,11.61111s4.96577,11.61111 11.09091,11.61111l110.90909,0c6.12514,0 11.09091,-5.19868 11.09091,-11.61111s-4.96577,-11.61111 -11.09091,-11.61111z" id="XMLID_509_"/>
    <path stroke="null" d="m275.90909,151.88889l-110.90909,0c-6.12514,0 -11.09091,5.19868 -11.09091,11.61111s4.96577,11.61111 11.09091,11.61111l110.90909,0c6.12514,0 11.09091,-5.19868 11.09091,-11.61111s-4.96577,-11.61111 -11.09091,-11.61111z" id="XMLID_510_"/>
    <path stroke="null" d="m54.09091,82.22222l221.81818,0c6.12514,0 11.09091,-5.19868 11.09091,-11.61111s-4.96577,-11.61111 -11.09091,-11.61111l-221.81818,0c-6.12514,0 -11.09091,5.19868 -11.09091,11.61111s4.96577,11.61111 11.09091,11.61111z" id="XMLID_511_"/>
    <path stroke="null" d="m275.90909,105.44445l-110.90909,0c-6.12514,0 -11.09091,5.19868 -11.09091,11.61111s4.96577,11.61111 11.09091,11.61111l110.90909,0c6.12514,0 11.09091,-5.19868 11.09091,-11.61111s-4.96577,-11.61111 -11.09091,-11.61111z" id="XMLID_512_"/>
    <path stroke="null" d="m49.84679,220.67156c1.37158,0.59526 2.81339,0.88399 4.2419,0.88399c2.88585,0 5.72291,-1.17969 7.84423,-3.40128l44.36364,-46.44444c4.33137,-4.53453 4.33137,-11.88591 0,-16.42043l-44.36364,-46.44444c-3.172,-3.32155 -7.94331,-4.31314 -12.08687,-2.51729c-4.1443,1.7974 -6.84605,6.03159 -6.84605,10.72789l0,92.88889c0,4.69631 2.70175,8.93049 6.84679,10.72712z" id="XMLID_515_"/>
   </g>
   <g stroke="null" id="svg_1"/>
   <g stroke="null" id="svg_2"/>
   <g stroke="null" id="svg_3"/>
   <g stroke="null" id="svg_4"/>
   <g stroke="null" id="svg_5"/>
   <g stroke="null" id="svg_6"/>
   <g stroke="null" id="svg_7"/>
   <g stroke="null" id="svg_8"/>
   <g stroke="null" id="svg_9"/>
   <g stroke="null" id="svg_10"/>
   <g stroke="null" id="svg_11"/>
   <g stroke="null" id="svg_12"/>
   <g stroke="null" id="svg_13"/>
   <g stroke="null" id="svg_14"/>
   <g stroke="null" id="svg_15"/>
  </g>
 </g>
</svg>