<svg width="24" height="24" xmlns="http://www.w3.org/2000/svg">

 <g>
  <title>background</title>
  <rect fill="none" id="canvas_background" height="6.96894" width="6.96894" y="-1" x="-1"/>
 </g>
 <g>
  <title>Layer 1</title>
  <g transform="rotate(89.54100036621094 11.999999999999998,12.000000000000002) " id="svg_4">
   <path id="svg_1" fill="#212121" d="m3,18c0,0.5523 0.44772,1 1,1c0.55228,0 1,-0.4477 1,-1l0,-12c0,-0.55228 -0.44772,-1 -1,-1c-0.55228,0 -1,0.44772 -1,1l0,12z"/>
   <path id="svg_2" fill="#212121" d="m19,18c0,0.5523 0.4477,1 1,1c0.5523,0 1,-0.4477 1,-1l0,-12c0,-0.55228 -0.4477,-1 -1,-1c-0.5523,0 -1,0.44772 -1,1l0,12z"/>
   <path id="svg_3" fill="#212121" d="m13.7856,13.7992l-0.0846,0.0981l-0.0055,0.0074c-0.2906,0.3917 -0.2586,0.9471 0.0966,1.3023c0.3905,0.3905 1.0237,0.3905 1.4142,0l2.3503,-2.3476c0.2735,-0.1791 0.4434,-0.5044 0.4434,-0.8604c0,-0.3561 -0.1701,-0.6815 -0.4438,-0.8605l-2.3564,-2.35385l-0.098,-0.08459l-0.0074,-0.0055c-0.3917,-0.29061 -0.9471,-0.25857 -1.3023,0.09661l-0.0065,0.00648l-0.0846,0.09803l-0.0055,0.00742c-0.2906,0.39166 -0.2586,0.9471 0.0966,1.3023l0.7944,0.7945l-3.1899,0l-0.0224,0.0017l-1.9607,0l0.8016,-0.8017l0.093,-0.1095l0.006,-0.0083c0.2521,-0.35159 0.2489,-0.82889 -0.0096,-1.17728l-0.0055,-0.00741l-0.0913,-0.10576l-0.1165,-0.09896l-0.0083,-0.00598c-0.35156,-0.25208 -0.82887,-0.24893 -1.17726,0.00957l-0.00741,0.0055l-0.09799,0.08459l-2.361,2.35843l-0.06455,0.0455l-0.00679,0.0055c-0.22848,0.1861 -0.3679,0.482 -0.3679,0.8049c0,0.356 0.16991,0.6814 0.44343,0.8604l2.35681,2.3542l0.09799,0.0846l0.00741,0.0055c0.39167,0.2906 0.94711,0.2585 1.30226,-0.0967c0.3552,-0.3551 0.3872,-0.9106 0.0966,-1.3022l-0.0055,-0.0075l-0.0846,-0.098l-0.80033,-0.7994l3.18913,0l0.0225,-0.0017l1.9602,0l-0.8003,0.7993z"/>
  </g>
 </g>
</svg>