<svg width="512" height="512" xmlns="http://www.w3.org/2000/svg">
 <g stroke="null">
  <title>Layer 1</title>
  <circle cx="256" cy="256" r="256" fill="#E05B49" id="svg_1" stroke="null"/>
  <g id="svg_26" stroke="null"/>
  <g id="svg_27" stroke="null"/>
  <g id="svg_28" stroke="null"/>
  <g id="svg_29" stroke="null"/>
  <g id="svg_30" stroke="null"/>
  <g id="svg_31" stroke="null"/>
  <g id="svg_32" stroke="null"/>
  <g id="svg_33" stroke="null"/>
  <g id="svg_34" stroke="null"/>
  <g id="svg_35" stroke="null"/>
  <g id="svg_36" stroke="null"/>
  <g id="svg_37" stroke="null"/>
  <g id="svg_38" stroke="null"/>
  <g id="svg_39" stroke="null"/>
  <g id="svg_40" stroke="null"/>
  <path stroke="null" id="svg_2" opacity="0.1" d="m504.619,317.035l-152.598,-152.603l-0.005,0.005c-24.427,-33.381 -63.888,-55.083 -108.443,-55.083c-74.133,0 -134.24,60.107 -134.24,134.24c0,37.568 15.456,71.52 40.336,95.888l-0.005,0.011l165.552,165.552c93.2,-22.085 166.661,-95.066 189.403,-188.01z"/>
  <g id="svg_49" stroke="null">
   <path id="svg_41" fill="#F5F5F5" d="m181.41394,95.00001l181.31067,0c4.53277,0 8.24139,2.96163 8.24139,6.5814l0,269.83722c0,3.61977 -3.70863,6.5814 -8.24139,6.5814l-255.48322,0c-4.53277,0 -8.24139,-2.96163 -8.24139,-6.5814l0,-207.31396l82.41394,-69.10465l0,-0.00001z" stroke="null"/>
   <path id="svg_42" fill="#E6E6E6" d="m173.17254,164.10466c4.53277,0 8.24139,-2.96163 8.24139,-6.5814l0,-62.52326l-82.41394,69.10465l74.17255,0l0,0.00001z" stroke="null"/>
  </g>
  <g id="svg_24" stroke="null">
   <path d="m137.744,386.45845c0,-5.32288 2.08673,-10.64576 6.25931,-14.70535l100.73147,-98.04545c8.34427,-8.12263 21.87393,-8.12263 30.2182,0c8.34427,8.12177 8.34427,21.29066 0,29.41243l-100.73236,98.04545c-8.34427,8.12263 -21.87393,8.12263 -30.2182,0c-4.17169,-4.06131 -6.25842,-9.3842 -6.25842,-14.70708z" fill="#263A7A" id="svg_15" stroke="null"/>
   <path d="m274.6741,273.2966l-130.90275,127.41393c0.14519,0.14822 0.2718,0.30936 0.42319,0.45499c8.34427,8.12263 21.87393,8.12263 30.2182,0l100.73059,-98.04545c8.34427,-8.12177 8.34427,-21.29066 0,-29.41243c-0.15139,-0.14649 -0.31429,-0.27144 -0.46923,-0.41104z" fill="#121149" id="svg_16" stroke="null"/>
   <circle cx="310.20785" cy="239.39114" r="73.53365" fill="#FFFFFF" id="svg_17" stroke="null"/>
   <path d="m363.17292,186.97235l-106.8208,103.9724c13.70585,13.5627 32.76708,21.98177 53.85484,21.98177c41.724,0 75.54816,-32.92224 75.54816,-73.53366c0.00177,-20.52804 -8.64794,-39.08186 -22.5822,-52.42051z" fill="#E5E4E3" id="svg_18" stroke="null"/>
   <path d="m220.16058,239.39114c0,-48.32731 40.396,-87.64614 90.04727,-87.64614s90.04727,39.31883 90.04727,87.64614s-40.396,87.64614 -90.04727,87.64614s-90.04727,-39.31883 -90.04727,-87.64614zm151.09721,0c0,-32.76454 -27.38691,-59.42117 -61.04906,-59.42117s-61.04906,26.65663 -61.04906,59.42117s27.38691,59.42117 61.04906,59.42117s61.04906,-26.65663 61.04906,-59.42117z" fill="#366695" id="svg_19" stroke="null"/>
   <path d="m373.39587,177.022l-20.49547,19.94896c11.31722,10.79226 18.35739,25.81817 18.35739,42.41932c0,32.76454 -27.38691,59.42117 -61.04906,59.42117c-17.05683,0 -32.49351,-6.85244 -43.58143,-17.86789l-20.49547,19.94896c16.33971,16.12548 39.0255,26.1439 64.0769,26.1439c49.65127,0 90.04727,-39.31883 90.04727,-87.64614c0,-24.3834 -10.29289,-46.46426 -26.86013,-62.36828z" fill="#273B7A" id="svg_20" stroke="null"/>
  </g>
 </g>

</svg>