<svg width="512" height="512" xmlns="http://www.w3.org/2000/svg">
 <g stroke="null">
  <title>Layer 1</title>
  <circle cx="256" cy="256" r="256" fill="#E05B49" id="svg_1" stroke="null"/>
  <path d="m504.619,342.22811l-159.5468,-171.11478l-0.00523,0.00561c-25.53932,-37.43034 -66.79724,-61.76494 -113.38113,-61.76494c-77.50877,0 -140.35284,67.39839 -140.35284,150.52422c0,42.12525 16.15981,80.19586 42.17277,107.51986l-0.00523,0.01233l173.09068,185.63458c97.44401,-24.76406 174.25018,-106.59815 198.02778,-210.81689l0,0.00001z" opacity="0.1" id="svg_2" stroke="null"/>
  <g id="svg_26" stroke="null"/>
  <g id="svg_27" stroke="null"/>
  <g id="svg_28" stroke="null"/>
  <g id="svg_29" stroke="null"/>
  <g id="svg_30" stroke="null"/>
  <g id="svg_31" stroke="null"/>
  <g id="svg_32" stroke="null"/>
  <g id="svg_33" stroke="null"/>
  <g id="svg_34" stroke="null"/>
  <g id="svg_35" stroke="null"/>
  <g id="svg_36" stroke="null"/>
  <g id="svg_37" stroke="null"/>
  <g id="svg_38" stroke="null"/>
  <g id="svg_39" stroke="null"/>
  <g id="svg_40" stroke="null"/>
  <g id="svg_49" stroke="null">
   <path id="svg_41" fill="#F5F5F5" d="m181.41394,95.00001l181.31067,0c4.53277,0 8.24139,2.96163 8.24139,6.5814l0,269.83722c0,3.61977 -3.70863,6.5814 -8.24139,6.5814l-255.48322,0c-4.53277,0 -8.24139,-2.96163 -8.24139,-6.5814l0,-207.31396l82.41394,-69.10465l0,-0.00001z" stroke="null"/>
   <path id="svg_42" fill="#E6E6E6" d="m173.17254,164.10466c4.53277,0 8.24139,-2.96163 8.24139,-6.5814l0,-62.52326l-82.41394,69.10465l74.17255,0l0,0.00001z" stroke="null"/>
  </g>
  <g stroke="null" id="svg_56">
   <path stroke="null" id="svg_3" fill="#576D7E" d="m418.99999,230.4l-223.99999,0c-8.836,0 -16,6.53715 -16,14.6l0,94.9c0,8.06285 7.164,14.6 16,14.6l223.99999,0c8.836,0 16,-6.53715 16,-14.6l0,-94.9c0,-8.06285 -7.164,-14.6 -16,-14.6z"/>
   <path stroke="null" id="svg_4" fill="#748B9E" d="m195,230.4l219.99999,0l0,0l0,0c0,4.03325 -3.58,7.3 -8,7.3l-203.99999,0c-4.42,0 -8,-3.26675 -8,-7.3l0,0l0,0z"/>
   <g stroke="null" id="svg_7">
    <circle stroke="null" id="svg_5" fill="#84BD5A" r="3.524" cy="255.95" cx="215"/>
    <circle stroke="null" id="svg_6" fill="#84BD5A" r="3.524" cy="255.95" cx="199"/>
   </g>
   <path stroke="null" id="svg_8" fill="#123247" d="m219,292.45l175.99999,0c2.208,0 4,1.6352 4,3.65l0,10.95c0,2.0148 -1.792,3.65 -4,3.65l-175.99999,0c-2.208,0 -4,-1.6352 -4,-3.65l0,-10.95c0,-2.0148 1.792,-3.65 4,-3.65z"/>
   <path stroke="null" id="svg_9" fill="#35495C" d="m398.99999,230.4l-183.99999,0l6.72,-30.6235c0.756,-3.4675 4.124,-5.94585 8,-5.8765l154.72,0c3.876,-0.06935 7.244,2.409 8,5.8765l6.56,30.6235z"/>
   <path stroke="null" id="svg_10" fill="#E2E7F0" d="m382.99999,179.3c0,-4.03325 -3.58,-7.3 -8,-7.3l-136,0c-4.42,0 -8,3.26675 -8,7.3l0,51.1l152,0l0,-51.1z"/>
   <path stroke="null" id="svg_11" fill="#C9D5E3" d="m382.99999,186.6l0,0l0,0l0,43.8l0,0l-8,0l0,0l0,-36.5c0,-4.03325 3.58,-7.3 8,-7.3z"/>
   <g stroke="null" id="svg_15">
    <path stroke="null" id="svg_12" fill="#3F556B" d="m223,310.7l8,0l0,0l0,7.3l0,0l0,0c-4.42,0 -8,-3.26675 -8,-7.3l0,0l0,0z"/>
    <path stroke="null" id="svg_13" fill="#3F556B" d="m231,347.2l-28,0c-4.42,0 -8,3.26675 -8,7.3l36,0l0,-7.3z"/>
    <path stroke="null" id="svg_14" fill="#3F556B" d="m426.99999,252.3l0,87.6c0,4.03325 -3.58,7.3 -8,7.3l-24,0c-2.208,0 -4,-1.6352 -4,-3.65l0,-32.85l-8,0l0,43.8l36,0c8.836,0 16,-6.53715 16,-14.6l0,-94.9c-4.42,0 -8,3.26675 -8,7.3z"/>
   </g>
   <path stroke="null" id="svg_16" fill="#E2E7F0" d="m231,383.7c0,4.03325 3.58,7.3 8,7.3l136,0c4.42,0 8,-3.26675 8,-7.3l0,-73l-152,0l0,73z"/>
   <g stroke="null" id="svg_20">
    <path stroke="null" id="svg_17" fill="#9DACBA" d="m251,328.95l112,0c2.208,0 4,1.6352 4,3.65l0,0c0,2.0148 -1.792,3.65 -4,3.65l-112,0c-2.208,0 -4,-1.6352 -4,-3.65l0,0c0,-2.0148 1.792,-3.65 4,-3.65z"/>
    <path stroke="null" id="svg_18" fill="#9DACBA" d="m251,365.45l64,0c2.208,0 4,1.6352 4,3.65l0,0c0,2.0148 -1.792,3.65 -4,3.65l-64,0c-2.208,0 -4,-1.6352 -4,-3.65l0,0c0,-2.0148 1.792,-3.65 4,-3.65z"/>
    <path stroke="null" id="svg_19" fill="#9DACBA" d="m251,347.2l112,0c2.208,0 4,1.6352 4,3.65l0,0c0,2.0148 -1.792,3.65 -4,3.65l-112,0c-2.208,0 -4,-1.6352 -4,-3.65l0,0c0,-2.0148 1.792,-3.65 4,-3.65z"/>
   </g>
   <path stroke="null" id="svg_21" fill="#C9D5E3" d="m378.99999,310.7l-148,0c0,4.03325 3.58,7.3 8,7.3l132,0c2.208,0 4,1.6352 4,3.65l0,58.4c0,2.0148 -1.792,3.65 -4,3.65l-124,0c-4.42,0 -8,3.26675 -8,7.3l136,0c4.42,0 8,-3.26675 8,-7.3l0,-73l-4,0z"/>
   <path stroke="null" id="svg_22" fill="#35495C" d="m231,252.3l24,0c2.208,0 4,1.6352 4,3.65l0,0c0,2.0148 -1.792,3.65 -4,3.65l-24,0c-2.208,0 -4,-1.6352 -4,-3.65l0,0c0,-2.0148 1.792,-3.65 4,-3.65z"/>
   <g stroke="null" id="svg_23"/>
   <g stroke="null" id="svg_24"/>
   <g stroke="null" id="svg_25"/>
   <g stroke="null" id="svg_43"/>
   <g stroke="null" id="svg_44"/>
   <g stroke="null" id="svg_45"/>
   <g stroke="null" id="svg_46"/>
   <g stroke="null" id="svg_47"/>
   <g stroke="null" id="svg_48"/>
   <g stroke="null" id="svg_50"/>
   <g stroke="null" id="svg_51"/>
   <g stroke="null" id="svg_52"/>
   <g stroke="null" id="svg_53"/>
   <g stroke="null" id="svg_54"/>
   <g stroke="null" id="svg_55"/>
  </g>
 </g>

</svg>