<svg width="512" height="512" xmlns="http://www.w3.org/2000/svg">

 <g>
  <title>background</title>
  <rect fill="none" id="canvas_background" height="602" width="802" y="-1" x="-1"/>
 </g>
 <g>
  <title>Layer 1</title>
  <circle id="svg_1" fill="#05BEA6" r="256" cy="256" cx="256"/>
  <path id="svg_3" fill="#FFFFFF" d="m430.625,242.467l-53.093,-41.898c-5.185,-4.093 -12.252,-4.861 -18.199,-1.979c-5.944,2.881 -9.719,8.907 -9.719,15.513l0,24.657l-76.374,0l0,-76.374l24.659,0c6.606,0 12.631,-3.775 15.513,-9.719c2.882,-5.944 2.113,-13.012 -1.979,-18.199l-41.898,-53.093c-3.268,-4.143 -8.256,-6.559 -13.533,-6.559s-10.264,2.417 -13.533,6.559l-41.898,53.093c-4.093,5.186 -4.861,12.254 -1.979,18.199c2.882,5.946 8.907,9.719 15.513,9.719l24.655,0l0,76.374l-76.374,0l0,-24.659c0,-6.606 -3.775,-12.631 -9.719,-15.513c-5.946,-2.882 -13.012,-2.114 -18.199,1.979l-53.093,41.9c-4.143,3.269 -6.559,8.256 -6.559,13.533s2.417,10.264 6.559,13.533l53.093,41.898c3.101,2.448 6.877,3.706 10.681,3.706c2.557,0 5.129,-0.569 7.516,-1.726c5.944,-2.881 9.719,-8.907 9.719,-15.513l0,-24.659l76.376,0l0,76.376l-24.659,0c-6.606,0 -12.631,3.775 -15.513,9.719s-2.114,13.012 1.979,18.199l41.898,53.093c3.269,4.143 8.256,6.559 13.533,6.559s10.264,-2.417 13.533,-6.559l41.898,-53.093c4.093,-5.185 4.861,-12.254 1.979,-18.199c-2.882,-5.946 -8.907,-9.719 -15.513,-9.719l-24.655,0l0,-76.376l76.374,0l0,24.659c0,6.606 3.775,12.631 9.719,15.513c2.389,1.158 4.96,1.726 7.516,1.726c3.806,0 7.58,-1.258 10.681,-3.706l53.093,-41.898c4.143,-3.268 6.559,-8.256 6.559,-13.533s-2.415,-10.264 -6.557,-13.533z"/>
  <path id="svg_4" fill="#E6F3FF" d="m430.625,242.467l-53.093,-41.898c-5.185,-4.093 -12.252,-4.861 -18.199,-1.979c-5.944,2.881 -9.719,8.907 -9.719,15.513l0,24.657l-76.374,0l0,-76.374l24.659,0c6.606,0 12.631,-3.775 15.513,-9.719c2.882,-5.944 2.113,-13.012 -1.979,-18.199l-41.898,-53.093c-3.21,-4.067 -8.076,-6.456 -13.246,-6.544l0,362.339c5.17,-0.086 10.035,-2.476 13.245,-6.544l41.898,-53.093c4.093,-5.185 4.861,-12.254 1.979,-18.199c-2.882,-5.946 -8.907,-9.719 -15.513,-9.719l-24.657,0l0,-76.376l76.374,0l0,24.659c0,6.606 3.775,12.631 9.719,15.513c2.389,1.158 4.96,1.726 7.516,1.726c3.806,0 7.58,-1.258 10.681,-3.706l53.093,-41.898c4.143,-3.268 6.559,-8.256 6.559,-13.533s-2.416,-10.264 -6.558,-13.533z"/>
  <g id="svg_5"/>
  <g id="svg_6"/>
  <g id="svg_7"/>
  <g id="svg_8"/>
  <g id="svg_9"/>
  <g id="svg_10"/>
  <g id="svg_11"/>
  <g id="svg_12"/>
  <g id="svg_13"/>
  <g id="svg_14"/>
  <g id="svg_15"/>
  <g id="svg_16"/>
  <g id="svg_17"/>
  <g id="svg_18"/>
  <g id="svg_19"/>
 </g>
</svg>