<svg width="24" height="24" xmlns="http://www.w3.org/2000/svg">

 <g>
  <title>Layer 1</title>
  <g stroke="null" id="svg_4">
   <path stroke="null" id="svg_1" fill="#212121" d="m4.65546,7.11214l0.00245,-1.83412c-0.76501,0.26616 -1.31337,0.98684 -1.31337,1.83412l0,9.07506c0,2.26647 1.85858,4.10374 4.15126,4.10374l4.42533,0c-0.37318,-0.38368 -0.69164,-0.81971 -0.94308,-1.29583l-3.48225,-0.00009c-1.56868,0 -2.84034,-1.25713 -2.84034,-2.80782l0,-9.07506z"/>
   <path stroke="null" id="svg_2" fill="#212121" d="m17.32773,10.93415l0,-5.98187c0,-1.07357 -0.88042,-1.94388 -1.96639,-1.94388l-7.86555,0c-1.086,0 -1.96639,0.8703 -1.96639,1.94388l0,11.23129c0,1.07354 0.88038,1.94388 1.96639,1.94388l3.11432,0c-0.13503,-0.41314 -0.22286,-0.8471 -0.25747,-1.29592l-2.85685,0c-0.362,0 -0.65546,-0.29011 -0.65546,-0.64796l0,-11.23129c0,-0.35785 0.29346,-0.64796 0.65546,-0.64796l7.86555,0c0.36199,0 0.65546,0.2901 0.65546,0.64796l0,5.83163c0.45122,0 0.89012,0.05201 1.31092,0.15024z"/>
   <path stroke="null" id="svg_3" fill="#212121" d="m16.01681,11.64786c2.65471,0 4.80672,2.12738 4.80672,4.7517c0,2.62432 -2.15201,4.7517 -4.80672,4.7517c-2.65471,0 -4.80672,-2.12738 -4.80672,-4.7517c0,-2.62432 2.15201,-4.7517 4.80672,-4.7517zm0.43794,7.34656l-0.00044,-2.16289l2.18138,0c0.24112,0 0.43654,-0.19335 0.43654,-0.43197c0,-0.23854 -0.19542,-0.43197 -0.43654,-0.43197l-2.18147,0l-0.00044,-2.16047c0,-0.23862 -0.19568,-0.43197 -0.43697,-0.43197c-0.2413,0 -0.43697,0.19335 -0.43697,0.43197l0.00044,2.16047l-2.18916,0c-0.24112,0 -0.43654,0.19344 -0.43654,0.43197c0,0.23862 0.19542,0.43197 0.43654,0.43197l2.18924,0l0.00044,2.16289c0,0.23862 0.19568,0.43197 0.43697,0.43197c0.24138,0 0.43697,-0.19335 0.43697,-0.43197z"/>
  </g>
 </g>
</svg>