<svg width="283.842" height="283.842" xmlns="http://www.w3.org/2000/svg">

 <g>
  <title>Layer 1</title>
  <g stroke="null" id="svg_19">
   <g stroke="null" id="svg_1">
    <path stroke="null" id="svg_2" d="m231.13065,61.30861l-7.23238,-5.87413c-16.84382,-13.71415 -42.63639,-12.29218 -57.56758,3.17742l-20.69835,21.44055c-4.67172,4.84009 -4.18624,12.27066 1.08299,16.56415l1.94264,1.58266c5.28754,4.30425 13.3554,3.85984 18.04689,-0.99572l20.69689,-21.43988c4.6168,-4.77824 12.61437,-5.21794 17.82136,-0.98563l7.22359,5.88422c5.20845,4.23768 5.69906,11.57951 1.07567,16.36044l-45.25856,46.87876c-3.83037,3.97413 -10.09838,5.04582 -15.2424,2.60527c-5.6251,-2.66713 -12.4855,-1.49526 -16.68565,2.85403l-0.35294,0.36575c-2.84184,2.94278 -4.02661,6.84968 -3.25043,10.71893c0.77691,3.86723 3.39908,7.12937 7.1943,8.95071c6.00221,2.88025 12.48403,4.27466 18.90215,4.27466c11.37322,0 22.54946,-4.3782 30.51262,-12.62296l45.25563,-46.87338c14.91435,-15.44876 13.36199,-39.1611 -3.46644,-52.86584z"/>
    <path stroke="null" id="svg_3" d="m135.11951,186.23863l-1.94704,-1.58401c-5.27509,-4.29147 -13.37005,-3.84034 -18.0425,1.0011l-20.68883,21.43786c-4.619,4.77689 -12.61071,5.21996 -17.81331,0.99034l-7.23384,-5.89228c-5.20992,-4.23634 -5.69906,-11.57211 -1.0742,-16.35438l45.25709,-46.8754c3.75202,-3.89076 9.92557,-5.00347 15.01394,-2.70814c5.8477,2.63822 12.94828,1.35541 17.2773,-3.13036l0.16256,-0.16808c2.78106,-2.88294 3.95119,-6.70916 3.21162,-10.49773c-0.73957,-3.78924 -3.28338,-7.00364 -6.98049,-8.82027c-16.71567,-8.21585 -37.17531,-4.85421 -49.7538,8.17887l-45.26002,46.86598l0,0.00067c-14.91655,15.44876 -13.36492,39.16043 3.46059,52.85979l7.23238,5.8822c7.74934,6.30846 17.40545,9.40722 27.02933,9.40722c11.27217,0 22.49747,-4.25382 30.54777,-12.58867l20.69176,-21.43786c4.68124,-4.85354 4.20089,-12.25991 -1.09031,-16.56684z"/>
   </g>
   <g stroke="null" id="svg_4"/>
   <g stroke="null" id="svg_5"/>
   <g stroke="null" id="svg_6"/>
   <g stroke="null" id="svg_7"/>
   <g stroke="null" id="svg_8"/>
   <g stroke="null" id="svg_9"/>
   <g stroke="null" id="svg_10"/>
   <g stroke="null" id="svg_11"/>
   <g stroke="null" id="svg_12"/>
   <g stroke="null" id="svg_13"/>
   <g stroke="null" id="svg_14"/>
   <g stroke="null" id="svg_15"/>
   <g stroke="null" id="svg_16"/>
   <g stroke="null" id="svg_17"/>
   <g stroke="null" id="svg_18"/>
  </g>
 </g>
</svg>