<svg width="512" height="512" xmlns="http://www.w3.org/2000/svg">

 <g>
  <title>background</title>
  <rect fill="none" id="canvas_background" height="602" width="802" y="-1" x="-1"/>
 </g>
 <g>
  <title>Layer 1</title>
  <circle id="svg_1" fill="#9d7de8" r="256" cy="256" cx="256"/>
  <path id="svg_2" fill="#8772e5" d="m506.532,308.824l-167.8,-167.798l-4.37,122.318l-111.638,-111.64l-28.208,195.663l-2.396,30.711l126.254,126.254c94.429,-23.642 168.062,-99.723 188.158,-195.508z"/>
  <path id="svg_3" fill="#FFFFFF" d="m276.22,292.071c-2.857,-6.01 -8.916,-9.84 -15.57,-9.84l-37.926,0l0,-130.527l-34.478,0l0,130.527l-37.926,0c-6.654,0 -12.714,3.831 -15.57,9.84s-1.998,13.128 2.205,18.285l55.165,67.722c3.274,4.02 8.183,6.353 13.365,6.353c5.182,0 10.092,-2.332 13.365,-6.353l55.165,-67.722c4.203,-5.157 5.061,-12.274 2.205,-18.285z"/>
  <path id="svg_4" fill="#E6F3FF" d="m276.22,292.071c-2.857,-6.01 -8.916,-9.84 -15.57,-9.84l-37.926,0l0,-130.527l-16.429,0l0,232.682c4.88,-0.231 9.454,-2.498 12.555,-6.306l55.165,-67.722c4.203,-5.159 5.061,-12.276 2.205,-18.287z"/>
  <path id="svg_5" fill="#FFFFFF" d="m392.173,208.746l-53.441,-67.722c-3.268,-4.143 -8.256,-6.559 -13.533,-6.559s-10.264,2.417 -13.533,6.559l-53.441,67.722c-4.093,5.186 -4.861,12.254 -1.979,18.199s8.907,9.719 15.513,9.719l36.202,0l0,130.527l34.478,0l0,-130.526l36.202,0c6.606,0 12.631,-3.775 15.513,-9.719c2.884,-5.945 2.112,-13.014 -1.981,-18.2z"/>
  <path id="svg_6" fill="#E6F3FF" d="m392.173,208.746l-53.441,-67.722c-3.26,-4.13 -8.228,-6.544 -13.488,-6.558l0,232.726l17.194,0l0,-130.527l36.202,0c6.606,0 12.631,-3.775 15.513,-9.719c2.883,-5.945 2.113,-13.014 -1.98,-18.2z"/>
  <g id="svg_7"/>
  <g id="svg_8"/>
  <g id="svg_9"/>
  <g id="svg_10"/>
  <g id="svg_11"/>
  <g id="svg_12"/>
  <g id="svg_13"/>
  <g id="svg_14"/>
  <g id="svg_15"/>
  <g id="svg_16"/>
  <g id="svg_17"/>
  <g id="svg_18"/>
  <g id="svg_19"/>
  <g id="svg_20"/>
  <g id="svg_21"/>
 </g>
</svg>