<svg width="512" height="512" xmlns="http://www.w3.org/2000/svg">
 <g stroke="null">
  <title>Layer 1</title>
  <circle stroke="null" id="svg_1" fill="#E05B49" r="256" cy="256" cx="256"/>
  <path stroke="null" id="svg_2" opacity="0.1" d="m504.619,342.22811l-159.5468,-171.11478l-0.00523,0.00561c-25.53932,-37.43034 -66.79724,-61.76494 -113.38113,-61.76494c-77.50877,0 -140.35284,67.39839 -140.35284,150.52422c0,42.12525 16.15981,80.19586 42.17277,107.51986l-0.00523,0.01233l173.09068,185.63458c97.44401,-24.76406 174.25018,-106.59815 198.02778,-210.81689l0,0.00001z"/>
  <g stroke="null" id="svg_26"/>
  <g stroke="null" id="svg_27"/>
  <g stroke="null" id="svg_28"/>
  <g stroke="null" id="svg_29"/>
  <g stroke="null" id="svg_30"/>
  <g stroke="null" id="svg_31"/>
  <g stroke="null" id="svg_32"/>
  <g stroke="null" id="svg_33"/>
  <g stroke="null" id="svg_34"/>
  <g stroke="null" id="svg_35"/>
  <g stroke="null" id="svg_36"/>
  <g stroke="null" id="svg_37"/>
  <g stroke="null" id="svg_38"/>
  <g stroke="null" id="svg_39"/>
  <g stroke="null" id="svg_40"/>
  <g stroke="null" id="svg_49">
   <path stroke="null" d="m181.41394,95.00001l181.31067,0c4.53277,0 8.24139,2.96163 8.24139,6.5814l0,269.83722c0,3.61977 -3.70863,6.5814 -8.24139,6.5814l-255.48322,0c-4.53277,0 -8.24139,-2.96163 -8.24139,-6.5814l0,-207.31396l82.41394,-69.10465l0,-0.00001z" fill="#F5F5F5" id="svg_41"/>
   <path stroke="null" d="m173.17254,164.10466c4.53277,0 8.24139,-2.96163 8.24139,-6.5814l0,-62.52326l-82.41394,69.10465l74.17255,0l0,0.00001z" fill="#E6E6E6" id="svg_42"/>
  </g>
  <g stroke="null" id="svg_46">
   <path stroke="null" id="svg_3" fill="#FFBD42" d="m156.75157,316.67878l-0.39174,0.37086l0,0l-15.06751,58.09207c-0.84352,3.2525 0.16918,6.68593 2.67066,9.05413l42.05291,-39.81237l-29.26433,-27.7047z"/>
   <path stroke="null" id="svg_4" fill="#30767A" d="m380.5205,195.16944l-36.89411,-34.92752c-5.9742,-5.6559 -15.65987,-5.6559 -21.63407,0l-32.69511,30.95314l-4.80281,4.54692l-128.13456,121.30721l0,0l-15.06751,58.09252c-0.84352,3.2525 0.16918,6.68593 2.67066,9.05413c2.50148,2.3682 6.12765,3.32695 9.56367,2.52837l61.36183,-14.26472l0,0l128.13504,-121.30811l4.80281,-4.54692l32.69511,-30.95314c5.97325,-5.65635 5.97325,-14.82598 -0.00095,-20.48188z"/>
   <path stroke="null" id="svg_5" fill="#007066" d="m343.62639,160.24192c-5.9742,-5.6559 -15.65987,-5.6559 -21.63407,0l-32.69511,30.95314l-4.80281,4.54692l-128.13456,121.30721l0,0l-15.06751,58.09252c-0.84352,3.2525 0.16918,6.68593 2.67066,9.05413l218.11069,-206.48994l-18.44729,-17.46399z"/>
   <path stroke="null" id="svg_6" fill="#4AB6BF" d="m343.62639,160.24192c-5.9742,-5.6559 -15.65987,-5.6559 -21.63407,0l-32.69511,30.95314l-4.80281,4.54692l-128.13456,121.30721l0,0l-15.06751,58.09252c-0.84352,3.2525 0.16918,6.68593 2.67066,9.05413l218.11069,-206.48994l-18.44729,-17.46399z"/>
   <path stroke="null" id="svg_7" fill="#940009" d="m363.20504,232.04378l17.31546,-16.3929c5.9742,-5.6559 5.9742,-14.82553 0,-20.48143l-36.89411,-34.92752c-5.9742,-5.6559 -15.65987,-5.6559 -21.63407,0l-17.31546,16.3929l58.52818,55.40895z"/>
   <path stroke="null" id="svg_8" fill="#FF0029" d="m362.07368,177.70591l-18.44729,-17.46399c-5.9742,-5.6559 -15.65987,-5.6559 -21.63407,0l-17.31546,16.3929l29.26433,27.70515l28.13249,-26.63407z"/>
   <path stroke="null" id="svg_9" fill="#F7DC4D" d="m156.75157,316.67878l-0.39174,0.37086l0,0l-15.06751,58.09207c-0.84352,3.2525 0.16918,6.68593 2.67066,9.05413c2.50148,2.3682 6.12765,3.32695 9.56367,2.52837l61.36183,-14.26472l0,0l0.39174,-0.37086l-58.52866,-55.40985z"/>
   <rect stroke="null" id="svg_10" fill="#FF9800" height="74.042" width="173.685" transform="matrix(-0.33697799701988695,-0.3190240964233875,0.33697799701988695,-0.3190240964233875,269.9099013938242,501.8349666896037) " y="495.53744" x="284.41049"/>
   <polygon stroke="null" id="svg_11" fill="#F7DC4D" points="336.74147033691406,201.68798828125 307.4771423339844,173.98373413085938 289.2971954345703,191.19461059570312 284.494873046875,195.74151611328125 282.52618408203125,197.60577392578125 311.7900390625,225.31002807617188 "/>
   <path stroke="null" id="svg_12" fill="#2D2B27" d="m146.30816,355.80401l-5.01535,19.33725c-0.84352,3.2525 0.16918,6.68593 2.67066,9.05413c2.50148,2.3682 6.12765,3.32695 9.56367,2.52837l20.42551,-4.74859l-27.64449,-26.17116z"/>
   <path stroke="null" id="svg_13" fill="#403E3B" d="m146.30816,355.80401l-5.01535,19.33725c-0.84352,3.2525 0.16918,6.68593 2.67066,9.05413l16.16741,-15.30603l-13.82272,-13.08536z"/>
   <g stroke="null" id="svg_14"/>
   <g stroke="null" id="svg_15"/>
   <g stroke="null" id="svg_16"/>
   <g stroke="null" id="svg_17"/>
   <g stroke="null" id="svg_18"/>
   <g stroke="null" id="svg_19"/>
   <g stroke="null" id="svg_20"/>
   <g stroke="null" id="svg_21"/>
   <g stroke="null" id="svg_22"/>
   <g stroke="null" id="svg_23"/>
   <g stroke="null" id="svg_24"/>
   <g stroke="null" id="svg_25"/>
   <g stroke="null" id="svg_43"/>
   <g stroke="null" id="svg_44"/>
   <g stroke="null" id="svg_45"/>
  </g>
 </g>

</svg>