<svg width="512" height="512" xmlns="http://www.w3.org/2000/svg">
 <g stroke="null">
  <title>Layer 1</title>
  <circle stroke="null" id="svg_1" fill="#E05B49" r="256" cy="256" cx="256"/>
  <g stroke="null" id="svg_26"/>
  <g stroke="null" id="svg_27"/>
  <g stroke="null" id="svg_28"/>
  <g stroke="null" id="svg_29"/>
  <g stroke="null" id="svg_30"/>
  <g stroke="null" id="svg_31"/>
  <g stroke="null" id="svg_32"/>
  <g stroke="null" id="svg_33"/>
  <g stroke="null" id="svg_34"/>
  <g stroke="null" id="svg_35"/>
  <g stroke="null" id="svg_36"/>
  <g stroke="null" id="svg_37"/>
  <g stroke="null" id="svg_38"/>
  <g stroke="null" id="svg_39"/>
  <g stroke="null" id="svg_40"/>
  <path stroke="null" id="svg_2" opacity="0.1" d="m504.619,317.035l-152.598,-152.603l-0.005,0.005c-24.427,-33.381 -63.888,-55.083 -108.443,-55.083c-74.133,0 -134.24,60.107 -134.24,134.24c0,37.568 15.456,71.52 40.336,95.888l-0.005,0.011l165.552,165.552c93.2,-22.085 166.661,-95.066 189.403,-188.01z"/>
  <g stroke="null" id="svg_49">
   <path stroke="null" d="m181.41394,95.00001l181.31067,0c4.53277,0 8.24139,2.96163 8.24139,6.5814l0,269.83722c0,3.61977 -3.70863,6.5814 -8.24139,6.5814l-255.48322,0c-4.53277,0 -8.24139,-2.96163 -8.24139,-6.5814l0,-207.31396l82.41394,-69.10465l0,-0.00001z" fill="#F5F5F5" id="svg_41"/>
   <path stroke="null" d="m173.17254,164.10466c4.53277,0 8.24139,-2.96163 8.24139,-6.5814l0,-62.52326l-82.41394,69.10465l74.17255,0l0,0.00001z" fill="#E6E6E6" id="svg_42"/>
  </g>
  <g id="svg_56" stroke="null">
   <path d="m418.99999,230.4l-223.99999,0c-8.836,0 -16,6.53715 -16,14.6l0,94.9c0,8.06285 7.164,14.6 16,14.6l223.99999,0c8.836,0 16,-6.53715 16,-14.6l0,-94.9c0,-8.06285 -7.164,-14.6 -16,-14.6z" fill="#576D7E" id="svg_3" stroke="null"/>
   <path d="m195,230.4l219.99999,0l0,0l0,0c0,4.03325 -3.58,7.3 -8,7.3l-203.99999,0c-4.42,0 -8,-3.26675 -8,-7.3l0,0l0,0z" fill="#748B9E" id="svg_4" stroke="null"/>
   <g id="svg_7" stroke="null">
    <circle cx="215" cy="255.95" r="3.524" fill="#84BD5A" id="svg_5" stroke="null"/>
    <circle cx="199" cy="255.95" r="3.524" fill="#84BD5A" id="svg_6" stroke="null"/>
   </g>
   <path d="m219,292.45l175.99999,0c2.208,0 4,1.6352 4,3.65l0,10.95c0,2.0148 -1.792,3.65 -4,3.65l-175.99999,0c-2.208,0 -4,-1.6352 -4,-3.65l0,-10.95c0,-2.0148 1.792,-3.65 4,-3.65z" fill="#123247" id="svg_8" stroke="null"/>
   <path d="m398.99999,230.4l-183.99999,0l6.72,-30.6235c0.756,-3.4675 4.124,-5.94585 8,-5.8765l154.72,0c3.876,-0.06935 7.244,2.409 8,5.8765l6.56,30.6235l-0.00001,0z" fill="#35495C" id="svg_9" stroke="null"/>
   <path d="m382.99999,179.3c0,-4.03325 -3.58,-7.3 -8,-7.3l-136,0c-4.42,0 -8,3.26675 -8,7.3l0,51.1l152,0l0,-51.1z" fill="#E2E7F0" id="svg_10" stroke="null"/>
   <path d="m382.99999,186.6l0,0l0,0l0,43.8l0,0l-8,0l0,0l0,-36.5c0,-4.03325 3.58,-7.3 8,-7.3z" fill="#C9D5E3" id="svg_11" stroke="null"/>
   <g id="svg_15" stroke="null">
    <path d="m223,310.7l8,0l0,0l0,7.3l0,0l0,0c-4.42,0 -8,-3.26675 -8,-7.3l0,0l0,0z" fill="#3F556B" id="svg_12" stroke="null"/>
    <path d="m231,347.2l-28,0c-4.42,0 -8,3.26675 -8,7.3l36,0l0,-7.3z" fill="#3F556B" id="svg_13" stroke="null"/>
    <path d="m426.99999,252.3l0,87.6c0,4.03325 -3.58,7.3 -8,7.3l-24,0c-2.208,0 -4,-1.6352 -4,-3.65l0,-32.85l-8,0l0,43.8l36,0c8.836,0 16,-6.53715 16,-14.6l0,-94.9c-4.42,0 -8,3.26675 -8,7.3z" fill="#3F556B" id="svg_14" stroke="null"/>
   </g>
   <path d="m231,383.7c0,4.03325 3.58,7.3 8,7.3l136,0c4.42,0 8,-3.26675 8,-7.3l0,-73l-152,0l0,73z" fill="#E2E7F0" id="svg_16" stroke="null"/>
   <g id="svg_20" stroke="null">
    <path d="m251,328.95l112,0c2.208,0 4,1.6352 4,3.65l0,0c0,2.0148 -1.792,3.65 -4,3.65l-112,0c-2.208,0 -4,-1.6352 -4,-3.65l0,0c0,-2.0148 1.792,-3.65 4,-3.65z" fill="#9DACBA" id="svg_17" stroke="null"/>
    <path d="m251,365.45l64,0c2.208,0 4,1.6352 4,3.65l0,0c0,2.0148 -1.792,3.65 -4,3.65l-64,0c-2.208,0 -4,-1.6352 -4,-3.65l0,0c0,-2.0148 1.792,-3.65 4,-3.65z" fill="#9DACBA" id="svg_18" stroke="null"/>
    <path d="m251,347.2l112,0c2.208,0 4,1.6352 4,3.65l0,0c0,2.0148 -1.792,3.65 -4,3.65l-112,0c-2.208,0 -4,-1.6352 -4,-3.65l0,0c0,-2.0148 1.792,-3.65 4,-3.65z" fill="#9DACBA" id="svg_19" stroke="null"/>
   </g>
   <path d="m378.99999,310.7l-148,0c0,4.03325 3.58,7.3 8,7.3l132,0c2.208,0 4,1.6352 4,3.65l0,58.4c0,2.0148 -1.792,3.65 -4,3.65l-124,0c-4.42,0 -8,3.26675 -8,7.3l136,0c4.42,0 8,-3.26675 8,-7.3l0,-73l-4,0z" fill="#C9D5E3" id="svg_21" stroke="null"/>
   <path d="m231,252.3l24,0c2.208,0 4,1.6352 4,3.65l0,0c0,2.0148 -1.792,3.65 -4,3.65l-24,0c-2.208,0 -4,-1.6352 -4,-3.65l0,0c0,-2.0148 1.792,-3.65 4,-3.65z" fill="#35495C" id="svg_22" stroke="null"/>
   <g id="svg_23" stroke="null"/>
   <g id="svg_24" stroke="null"/>
   <g id="svg_25" stroke="null"/>
   <g id="svg_43" stroke="null"/>
   <g id="svg_44" stroke="null"/>
   <g id="svg_45" stroke="null"/>
   <g id="svg_46" stroke="null"/>
   <g id="svg_47" stroke="null"/>
   <g id="svg_48" stroke="null"/>
   <g id="svg_50" stroke="null"/>
   <g id="svg_51" stroke="null"/>
   <g id="svg_52" stroke="null"/>
   <g id="svg_53" stroke="null"/>
   <g id="svg_54" stroke="null"/>
   <g id="svg_55" stroke="null"/>
  </g>
 </g>

</svg>