<svg width="512" height="512" xmlns="http://www.w3.org/2000/svg">
 <g stroke="null">
  <title>Layer 1</title>
  <circle stroke="null" id="svg_1" fill="#E05B49" r="256" cy="256" cx="256"/>
  <g stroke="null" id="svg_26"/>
  <g stroke="null" id="svg_27"/>
  <g stroke="null" id="svg_28"/>
  <g stroke="null" id="svg_29"/>
  <g stroke="null" id="svg_30"/>
  <g stroke="null" id="svg_31"/>
  <g stroke="null" id="svg_32"/>
  <g stroke="null" id="svg_33"/>
  <g stroke="null" id="svg_34"/>
  <g stroke="null" id="svg_35"/>
  <g stroke="null" id="svg_36"/>
  <g stroke="null" id="svg_37"/>
  <g stroke="null" id="svg_38"/>
  <g stroke="null" id="svg_39"/>
  <g stroke="null" id="svg_40"/>
  <path d="m504.619,317.035l-152.598,-152.603l-0.005,0.005c-24.427,-33.381 -63.888,-55.083 -108.443,-55.083c-74.133,0 -134.24,60.107 -134.24,134.24c0,37.568 15.456,71.52 40.336,95.888l-0.005,0.011l165.552,165.552c93.2,-22.085 166.661,-95.066 189.403,-188.01z" opacity="0.1" id="svg_2" stroke="null"/>
  <g stroke="null" id="svg_49">
   <path stroke="null" d="m181.41394,95.00001l181.31067,0c4.53277,0 8.24139,2.96163 8.24139,6.5814l0,269.83722c0,3.61977 -3.70863,6.5814 -8.24139,6.5814l-255.48322,0c-4.53277,0 -8.24139,-2.96163 -8.24139,-6.5814l0,-207.31396l82.41394,-69.10465l0,-0.00001z" fill="#F5F5F5" id="svg_41"/>
   <path stroke="null" d="m173.17254,164.10466c4.53277,0 8.24139,-2.96163 8.24139,-6.5814l0,-62.52326l-82.41394,69.10465l74.17255,0l0,0.00001z" fill="#E6E6E6" id="svg_42"/>
  </g>
  <g stroke="null" id="svg_25">
   <path stroke="null" id="svg_3" fill="#79B5BF" d="m224.83114,397.22128c-13.81092,13.31222 -43.2742,6.21237 -57.08512,-7.09985l0,0c-13.81092,-13.31222 -21.17674,-41.71163 -7.36582,-55.02385l110.94769,-92.74182c13.81092,-13.31222 35.90838,-13.31222 49.7193,0l0,0c13.81092,13.31222 13.81092,34.61178 0,47.924l-96.21605,106.94152z"/>
   <path stroke="null" id="svg_4" fill="#6799A5" d="m321.04719,242.35575l0,0c13.81092,13.31222 13.81092,34.61178 0,47.924l-96.21605,106.94152c-13.81092,13.31222 -43.2742,6.21237 -57.08512,-7.09985l0,0"/>
   <path stroke="null" id="svg_5" fill="#90CCD3" d="m427.85161,176.23838l-54.7833,52.80515l-39.13093,-37.71796l53.86257,-52.36141c-33.1462,-15.53093 -74.11858,-10.20604 -101.28005,16.41841c-34.52729,33.28056 -34.52729,87.41693 0,120.69749s90.69168,33.28056 125.21897,0c27.62183,-27.51193 33.1462,-67.89234 16.11274,-99.84167z"/>
   <path stroke="null" id="svg_6" fill="#79B5BF" d="m286.5199,154.93882c-34.52729,33.28056 -34.52729,87.41693 0,120.69749s90.69168,33.28056 125.21897,0c28.0822,-27.06819 33.1462,-67.4486 16.11274,-99.39793l-54.7833,52.80515l-39.13093,-37.71796l53.86257,-52.36141"/>
   <path stroke="null" id="svg_7" fill="#6799A5" d="m286.5199,275.63631c34.52729,33.28056 90.69168,33.28056 125.21897,0c28.0822,-27.06819 33.1462,-67.4486 16.11274,-99.39793l-54.7833,52.80515l-39.13093,-37.71796"/>
   <g stroke="null" id="svg_11">
    <circle stroke="null" id="svg_8" fill="#EAEAEA" r="4.05161" cy="356.39713" cx="202.73368"/>
    <circle stroke="null" id="svg_9" fill="#EAEAEA" r="1.17627" cy="328.44146" cx="231.7366"/>
    <circle stroke="null" id="svg_10" fill="#EAEAEA" r="1.17627" cy="314.24175" cx="246.46825"/>
   </g>
   <g stroke="null" id="svg_12"/>
   <g stroke="null" id="svg_13"/>
   <g stroke="null" id="svg_14"/>
   <g stroke="null" id="svg_21"/>
   <g stroke="null" id="svg_22"/>
   <g stroke="null" id="svg_23"/>
   <g stroke="null" id="svg_25"/>
   <g stroke="null" id="svg_43"/>
   <g stroke="null" id="svg_44"/>
   <g stroke="null" id="svg_45"/>
   <g stroke="null" id="svg_46"/>
   <g stroke="null" id="svg_47"/>
   <g stroke="null" id="svg_48"/>
   <g stroke="null" id="svg_50"/>
   <g stroke="null" id="svg_51"/>
  </g>
 </g>

</svg>