<svg width="263.285" height="263.285" xmlns="http://www.w3.org/2000/svg">

 <g>
  <title>Layer 1</title>
  <g stroke="null" id="svg_20">
   <g stroke="null" id="svg_1">
    <path stroke="null" id="svg_2" d="m177.96185,42.09616c-5.67245,-2.68685 -12.61107,-0.58158 -15.49608,4.70199l-85.71288,156.9635c-2.88501,5.28286 -0.62387,11.74175 5.05011,14.42789c1.67338,0.79189 3.45664,1.16745 5.21376,1.16745c4.19959,0 8.24783,-2.14462 10.28232,-5.86945l85.71288,-156.9635c2.88501,-5.28286 0.62387,-11.74175 -5.05011,-14.42789z"/>
    <path stroke="null" id="svg_3" d="m116.41699,93.7852c0,-22.43981 -19.60809,-40.69625 -43.70927,-40.69625c-24.09964,0 -43.70773,18.25644 -43.70773,40.69625c0,22.43909 19.60809,40.69554 43.7085,40.69554c24.10118,0 43.7085,-18.25644 43.7085,-40.69554zm-43.7085,19.23504c-11.39099,0 -20.65914,-8.62927 -20.65914,-19.23504c0,-10.60649 9.26815,-19.23576 20.65914,-19.23576c11.39176,0 20.65991,8.62855 20.65991,19.23576c-0.00077,10.60578 -9.26815,19.23504 -20.65991,19.23504z"/>
    <path stroke="null" id="svg_4" d="m187.5765,125.80569c-24.10118,0 -43.70927,18.25644 -43.70927,40.69554c0,22.43909 19.60732,40.69554 43.70927,40.69554c24.10041,0 43.7085,-18.25573 43.7085,-40.69554c0,-22.43981 -19.60732,-40.69554 -43.7085,-40.69554zm0,59.92987c-11.39176,0 -20.65991,-8.62927 -20.65991,-19.23504c0,-10.60578 9.26815,-19.23504 20.65991,-19.23504c11.39099,0 20.65914,8.62927 20.65914,19.23504c0,10.60578 -9.26738,19.23504 -20.65914,19.23504z"/>
   </g>
   <g stroke="null" id="svg_5"/>
   <g stroke="null" id="svg_6"/>
   <g stroke="null" id="svg_7"/>
   <g stroke="null" id="svg_8"/>
   <g stroke="null" id="svg_9"/>
   <g stroke="null" id="svg_10"/>
   <g stroke="null" id="svg_11"/>
   <g stroke="null" id="svg_12"/>
   <g stroke="null" id="svg_13"/>
   <g stroke="null" id="svg_14"/>
   <g stroke="null" id="svg_15"/>
   <g stroke="null" id="svg_16"/>
   <g stroke="null" id="svg_17"/>
   <g stroke="null" id="svg_18"/>
   <g stroke="null" id="svg_19"/>
  </g>
 </g>
</svg>