<svg xmlns="http://www.w3.org/2000/svg" xmlns:xlink="http://www.w3.org/1999/xlink">
    <symbol id="telegram" viewBox="0 0 300 300">
        <g>
            <path id="XMLID_497_" d="M5.299,144.645l69.126,25.8l26.756,86.047c1.712,5.511,8.451,7.548,12.924,3.891l38.532-31.412
                c4.039-3.291,9.792-3.455,14.013-0.391l69.498,50.457c4.785,3.478,11.564,0.856,12.764-4.926L299.823,29.22
                c1.31-6.316-4.896-11.585-10.91-9.259L5.218,129.402C-1.783,132.102-1.722,142.014,5.299,144.645z M96.869,156.711l135.098-83.207
                c2.428-1.491,4.926,1.792,2.841,3.726L123.313,180.87c-3.919,3.648-6.447,8.53-7.163,13.829l-3.798,28.146
                c-0.503,3.758-5.782,4.131-6.819,0.494l-14.607-51.325C89.253,166.16,91.691,159.907,96.869,156.711z"/>
        </g>
    </symbol>
    <symbol id="skype" viewBox="0 0 300 300">
        <g>
            <path id="XMLID_819_" d="M289.391,181.848c2.133-9.755,3.268-19.881,3.268-30.273c0-77.917-63.166-141.084-141.086-141.084
                c-8.226,0-16.286,0.711-24.128,2.064C114.836,4.611,99.918,0,83.916,0C38.728,0,2.097,36.635,2.097,81.816
                c0,15.104,4.109,29.24,11.246,41.385c-1.871,9.166-2.854,18.653-2.854,28.373c0,77.917,63.165,141.084,141.084,141.084
                c8.826,0,17.459-0.817,25.834-2.367c11.518,6.19,24.688,9.709,38.678,9.709c45.189,0,81.818-36.631,81.818-81.816
                C297.903,205.127,294.83,192.797,289.391,181.848z M223.932,218.998c-6.527,9.236-16.17,16.555-28.664,21.749
                c-12.373,5.143-27.205,7.751-44.088,7.751c-20.264,0-37.253-3.564-50.513-10.598c-9.479-5.121-17.296-12.056-23.229-20.613
                c-5.993-8.645-9.033-17.223-9.033-25.494c0-5.17,1.98-9.652,5.886-13.32c3.865-3.636,8.818-5.478,14.724-5.478
                c4.848,0,9.029,1.456,12.429,4.328c3.247,2.752,6.034,6.824,8.273,12.083c2.5,5.726,5.226,10.561,8.105,14.369
                c2.767,3.663,6.748,6.742,11.832,9.145c5.115,2.422,12.01,3.649,20.491,3.649c11.663,0,21.226-2.49,28.419-7.402
                c7.025-4.797,10.441-10.555,10.441-17.604c0-5.57-1.783-9.947-5.449-13.382c-3.84-3.591-8.904-6.386-15.055-8.303
                c-6.412-1.999-15.117-4.155-25.884-6.409c-14.586-3.124-26.985-6.83-36.86-11.019c-0.038-0.015-0.077-0.031-0.115-0.048
                c-10.117-4.303-18.271-10.27-24.236-17.736c-6.059-7.582-9.129-17.094-9.129-28.275c0-10.658,3.223-20.265,9.58-28.552
                c6.309-8.229,15.523-14.624,27.385-19.012c11.709-4.33,25.637-6.524,41.396-6.524c12.6,0,23.678,1.455,32.924,4.33
                c9.299,2.896,17.139,6.807,23.299,11.619c6.205,4.848,10.82,10.035,13.719,15.422c2.928,5.441,4.412,10.856,4.412,16.094
                c0,5.041-1.947,9.622-5.787,13.615c-3.863,4.016-8.738,6.055-14.49,6.055c-5.225,0-9.314-1.275-12.152-3.789
                c-2.641-2.334-5.379-5.973-8.42-11.209c-3.518-6.684-7.775-11.953-12.66-15.666c-4.74-3.606-12.666-5.437-23.555-5.437
                c-10.113,0-18.338,2.03-24.445,6.034c-5.885,3.858-8.744,8.282-8.744,13.523c0,3.215,0.92,5.901,2.813,8.213
                c2.005,2.449,4.833,4.6,8.408,6.388c3.708,1.864,7.529,3.345,11.357,4.402c3.921,1.088,10.5,2.7,19.522,4.784
                c9.506,2.041,18.359,4.289,26.418,6.695c1.619,0.483,3.219,0.972,4.771,1.468c9.395,3.007,17.514,6.716,24.135,11.022
                c6.758,4.401,12.109,10.053,15.906,16.8c3.807,6.771,5.736,15.132,5.736,24.844C233.803,199.135,230.481,209.727,223.932,218.998z"
                />
        </g>
    </symbol>
    <symbol id="linkedin" viewBox="0 0 504.4 504.4">
        <g>
            <path d="M377.6,0.2H126.4C56.8,0.2,0,57,0,126.6v251.6c0,69.2,56.8,126,126.4,126H378c69.6,0,126.4-56.8,126.4-126.4V126.6
                C504,57,447.2,0.2,377.6,0.2z M168,408.2H96v-208h72V408.2z M131.6,168.2c-20.4,0-36.8-16.4-36.8-36.8c0-20.4,16.4-36.8,36.8-36.8
                c20.4,0,36.8,16.4,36.8,36.8C168,151.8,151.6,168.2,131.6,168.2z M408.4,408.2H408h-60V307.4c0-24.4-3.2-55.6-36.4-55.6
                c-34,0-39.6,26.4-39.6,54v102.4h-60v-208h56v28h1.6c8.8-16,29.2-28.4,61.2-28.4c66,0,77.6,38,77.6,94.4V408.2z"/>
        </g>
    </symbol>
    <symbol id="phone" viewBox="0 0 322 322">
        <g>
            <path id="XMLID_8_" d="M275.445,135.123c0.387-45.398-38.279-87.016-86.192-92.771c-0.953-0.113-1.991-0.285-3.09-0.467
                c-2.372-0.393-4.825-0.797-7.3-0.797c-9.82,0-12.445,6.898-13.136,11.012c-0.672,4-0.031,7.359,1.902,9.988
                c3.252,4.422,8.974,5.207,13.57,5.836c1.347,0.186,2.618,0.359,3.682,0.598c43.048,9.619,57.543,24.742,64.627,67.424
                c0.173,1.043,0.251,2.328,0.334,3.691c0.309,5.102,0.953,15.717,12.365,15.717h0.001c0.95,0,1.971-0.082,3.034-0.244
                c10.627-1.615,10.294-11.318,10.134-15.98c-0.045-1.313-0.088-2.555,0.023-3.381C275.429,135.541,275.444,135.332,275.445,135.123z
                "/>
            <path id="XMLID_9_" d="M176.077,25.688c1.275,0.092,2.482,0.18,3.487,0.334c70.689,10.871,103.198,44.363,112.207,115.605
                c0.153,1.211,0.177,2.688,0.202,4.252c0.09,5.566,0.275,17.145,12.71,17.385l0.386,0.004c3.9,0,7.002-1.176,9.221-3.498
                c3.871-4.049,3.601-10.064,3.383-14.898c-0.053-1.186-0.104-2.303-0.091-3.281C318.481,68.729,255.411,2.658,182.614,0.201
                c-0.302-0.01-0.59,0.006-0.881,0.047c-0.143,0.021-0.408,0.047-0.862,0.047c-0.726,0-1.619-0.063-2.566-0.127
                C177.16,0.09,175.862,0,174.546,0c-11.593,0-13.797,8.24-14.079,13.152C159.817,24.504,170.799,25.303,176.077,25.688z"/>
            <path id="XMLID_10_" d="M288.36,233.703c-1.503-1.148-3.057-2.336-4.512-3.508c-7.718-6.211-15.929-11.936-23.87-17.473
                c-1.648-1.148-3.296-2.297-4.938-3.449c-10.172-7.145-19.317-10.617-27.957-10.617c-11.637,0-21.783,6.43-30.157,19.109
                c-3.71,5.621-8.211,8.354-13.758,8.354c-3.28,0-7.007-0.936-11.076-2.783c-32.833-14.889-56.278-37.717-69.685-67.85
                c-6.481-14.564-4.38-24.084,7.026-31.832c6.477-4.396,18.533-12.58,17.679-28.252c-0.967-17.797-40.235-71.346-56.78-77.428
                c-7.005-2.576-14.365-2.6-21.915-0.06c-19.02,6.394-32.669,17.623-39.475,32.471C2.365,64.732,2.662,81.578,9.801,99.102
                c20.638,50.666,49.654,94.84,86.245,131.293c35.816,35.684,79.837,64.914,130.839,86.875c4.597,1.978,9.419,3.057,12.94,3.844
                c1.2,0.27,2.236,0.5,2.991,0.707c0.415,0.113,0.843,0.174,1.272,0.178l0.403,0.002c0.001,0,0,0,0.002,0
                c23.988,0,52.791-21.92,61.637-46.91C313.88,253.209,299.73,242.393,288.36,233.703z"/>
            <path id="XMLID_11_" d="M186.687,83.564c-4.107,0.104-12.654,0.316-15.653,9.021c-1.403,4.068-1.235,7.6,0.5,10.498
                c2.546,4.252,7.424,5.555,11.861,6.27c16.091,2.582,24.355,11.48,26.008,28c0.768,7.703,5.955,13.082,12.615,13.082h0.001
                c0.492,0,0.995-0.029,1.496-0.09c8.01-0.953,11.893-6.838,11.542-17.49c0.128-11.117-5.69-23.738-15.585-33.791
                C209.543,88.98,197.574,83.301,186.687,83.564z"/>
        </g>
    </symbol>
    <symbol id="email" viewBox="0 0 493.332 493.332">
        <g>
            <path id="XMLID_81_" d="M352.731,450.956c3.037,9.789-2.044,20.213-11.616,23.878c-35.811,13.709-69.294,18.498-112.873,18.498
				c-117.663,0-221.147-84.347-221.147-223.275C7.095,125.46,112.003,0,272.2,0c124.735,0,214.036,85.764,214.036,204.845
				c0,103.483-58.12,168.693-134.66,168.693c-33.327,0-57.419-17.007-60.955-54.582h-1.424c-21.963,36.15-53.86,54.582-91.43,54.582
				c-46.082,0-79.376-34.022-79.376-92.142c0-86.475,63.769-165.147,165.841-165.147c18.691,0,38.9,2.795,55.909,7.172
				c16.425,4.227,26.861,20.236,24.147,36.978l-16.972,104.695c-7.072,41.818-2.112,60.953,17.721,61.666
				c30.475,0.711,68.762-38.272,68.762-119.786c0-92.15-59.543-163.732-169.41-163.732c-108.444,0-203.428,85.051-203.428,220.436
				c0,118.369,75.834,185.708,181.448,185.708c27.489,0,56.203-4.51,80.853-13.214c5.863-2.07,12.315-1.662,17.872,1.126
				c5.558,2.788,9.753,7.716,11.595,13.655L352.731,450.956z M293.954,181.362c0.534-3.626-1.892-7.027-5.496-7.696
				c-4.413-0.819-9.536-1.426-15.573-1.426c-46.771,0-83.617,46.076-83.617,100.653c0,26.94,12.037,43.946,35.423,43.946
				c26.231,0,53.876-33.31,60.265-74.425L293.954,181.362z"/>
        </g>
    </symbol>
    <symbol id="address" viewBox="0 0 49 49">
        <g>
            <path d="M24.5,0C14.465,0,6.329,8.136,6.329,18.171C6.329,33.076,24.5,49,24.5,49s18.171-15.107,18.171-30.828
                C42.671,8.136,34.535,0,24.5,0z M24.5,29.197c-6.202,0-11.229-5.029-11.229-11.229c0-6.202,5.026-11.229,11.229-11.229
                c6.201,0,11.229,5.027,11.229,11.229C35.729,24.168,30.701,29.197,24.5,29.197z"/>
        </g>
    </symbol>
</svg>
   