<svg width="512" height="512" xmlns="http://www.w3.org/2000/svg">
 <g stroke="null">
  <title>Layer 1</title>
  <circle stroke="null" id="svg_1" fill="#E05B49" r="256" cy="256" cx="256"/>
  <path stroke="null" id="svg_2" opacity="0.1" d="m504.619,317.035l-152.598,-152.603l-0.005,0.005c-24.427,-33.381 -63.888,-55.083 -108.443,-55.083c-74.133,0 -134.24,60.107 -134.24,134.24c0,37.568 15.456,71.52 40.336,95.888l-0.005,0.011l165.552,165.552c93.2,-22.085 166.661,-95.066 189.403,-188.01z"/>
  <g stroke="null" id="svg_26"/>
  <g stroke="null" id="svg_27"/>
  <g stroke="null" id="svg_28"/>
  <g stroke="null" id="svg_29"/>
  <g stroke="null" id="svg_30"/>
  <g stroke="null" id="svg_31"/>
  <g stroke="null" id="svg_32"/>
  <g stroke="null" id="svg_33"/>
  <g stroke="null" id="svg_34"/>
  <g stroke="null" id="svg_35"/>
  <g stroke="null" id="svg_36"/>
  <g stroke="null" id="svg_37"/>
  <g stroke="null" id="svg_38"/>
  <g stroke="null" id="svg_39"/>
  <g stroke="null" id="svg_40"/>
  <g stroke="null" id="svg_49">
   <path stroke="null" d="m181.41394,95.00001l181.31067,0c4.53277,0 8.24139,2.96163 8.24139,6.5814l0,269.83722c0,3.61977 -3.70863,6.5814 -8.24139,6.5814l-255.48322,0c-4.53277,0 -8.24139,-2.96163 -8.24139,-6.5814l0,-207.31396l82.41394,-69.10465l0,-0.00001z" fill="#F5F5F5" id="svg_41"/>
   <path stroke="null" d="m173.17254,164.10466c4.53277,0 8.24139,-2.96163 8.24139,-6.5814l0,-62.52326l-82.41394,69.10465l74.17255,0l0,0.00001z" fill="#E6E6E6" id="svg_42"/>
  </g>
  <g transform="matrix(-0.9994292864817121,0,0,-0.9835886790811689,655.1900392682096,522.1626777271329) " id="svg_47" stroke="null">
   <circle id="svg_15" fill="#2179A6" r="119.5" cy="241.24243" cx="352.41745" stroke="null"/>
   <g id="svg_18" stroke="null">
    <path id="svg_16" fill="#F5F5F5" d="m352.41746,314.78088c-5.41581,0 -9.81125,-4.10896 -9.81125,-9.1923l0,-128.6923c0,-5.08335 4.39543,-9.19231 9.81125,-9.19231s9.81124,4.10896 9.81124,9.19231l0,128.6923c0,5.08334 -4.39543,9.1923 -9.81124,9.1923z" stroke="null"/>
    <path id="svg_17" fill="#F5F5F5" d="m401.47367,232.05011c-2.51168,0 -5.02335,-0.90085 -6.93655,-2.69335l-42.11968,-39.46257l-42.11968,39.46257c-3.83619,3.5942 -10.0369,3.5942 -13.8731,0s-3.83619,-9.40373 0,-12.99792l49.05623,-45.96153c3.8362,-3.5942 10.03691,-3.5942 13.8731,0l49.05623,45.96153c3.83619,3.59419 3.83619,9.40373 0,12.99792c-1.91319,1.7925 -4.42487,2.69335 -6.93655,2.69335z" stroke="null"/>
   </g>
  </g>
 </g>

</svg>