<svg width="512" height="512" xmlns="http://www.w3.org/2000/svg">
 <g stroke="null">
  <title>Layer 1</title>
  <circle stroke="null" id="svg_1" fill="#E05B49" r="256" cy="256" cx="256"/>
  <g stroke="null" id="svg_26"/>
  <g stroke="null" id="svg_27"/>
  <g stroke="null" id="svg_28"/>
  <g stroke="null" id="svg_29"/>
  <g stroke="null" id="svg_30"/>
  <g stroke="null" id="svg_31"/>
  <g stroke="null" id="svg_32"/>
  <g stroke="null" id="svg_33"/>
  <g stroke="null" id="svg_34"/>
  <g stroke="null" id="svg_35"/>
  <g stroke="null" id="svg_36"/>
  <g stroke="null" id="svg_37"/>
  <g stroke="null" id="svg_38"/>
  <g stroke="null" id="svg_39"/>
  <g stroke="null" id="svg_40"/>
  <path d="m504.619,317.035l-152.598,-152.603l-0.005,0.005c-24.427,-33.381 -63.888,-55.083 -108.443,-55.083c-74.133,0 -134.24,60.107 -134.24,134.24c0,37.568 15.456,71.52 40.336,95.888l-0.005,0.011l165.552,165.552c93.2,-22.085 166.661,-95.066 189.403,-188.01z" opacity="0.1" id="svg_2" stroke="null"/>
  <g stroke="null" id="svg_49">
   <path stroke="null" d="m181.41394,95.00001l181.31067,0c4.53277,0 8.24139,2.96163 8.24139,6.5814l0,269.83722c0,3.61977 -3.70863,6.5814 -8.24139,6.5814l-255.48322,0c-4.53277,0 -8.24139,-2.96163 -8.24139,-6.5814l0,-207.31396l82.41394,-69.10465l0,-0.00001z" fill="#F5F5F5" id="svg_41"/>
   <path stroke="null" d="m173.17254,164.10466c4.53277,0 8.24139,-2.96163 8.24139,-6.5814l0,-62.52326l-82.41394,69.10465l74.17255,0l0,0.00001z" fill="#E6E6E6" id="svg_42"/>
  </g>
  <g stroke="null" id="svg_69">
   <circle stroke="null" id="svg_48" fill="#324A5E" r="122.00001" cy="282.00001" cx="297.00001"/>
   <g stroke="null" id="svg_52">
    <path stroke="null" id="svg_50" fill="#E6E9EE" d="m342.16079,359.50021c-11.91976,0 -23.11202,-4.0103 -31.50622,-11.25782l-9.34554,-8.06891c-8.3942,-7.24752 -13.03899,-16.95921 -13.03899,-27.20238c0,-10.29149 4.64479,-19.95485 13.03899,-27.20238s19.64242,-11.25782 31.50622,-11.25782c11.91976,0 23.11202,4.0103 31.50622,11.25782l9.34554,8.06891c17.40397,15.02653 17.40397,39.42654 0,54.45307c-8.3942,7.19921 -19.58646,11.20951 -31.50622,11.20951zm-9.28958,-67.98178c-6.60344,0 -12.8711,2.22257 -17.57185,6.28119s-7.27497,9.42178 -7.27497,15.17149c0,5.70139 2.57422,11.11287 7.27497,15.17149l9.34554,8.06891c4.70075,4.05861 10.91246,6.28119 17.57185,6.28119c6.60344,0 12.8711,-2.22257 17.57185,-6.28119c9.68131,-8.35881 9.68131,-21.93584 0,-30.29465l-9.34554,-8.06891c-4.75671,-4.10693 -10.96842,-6.32951 -17.57185,-6.32951z"/>
    <path stroke="null" id="svg_51" fill="#E6E9EE" d="m261.1288,289.53743c-11.91976,0 -23.11202,-4.0103 -31.50622,-11.25782l-9.34554,-8.06891c-17.40397,-15.02653 -17.40397,-39.42654 0,-54.45307c8.3942,-7.24752 19.64242,-11.25782 31.50622,-11.25782c11.91976,0 23.11202,4.0103 31.50622,11.25782l9.34554,8.06891c17.40397,15.02653 17.40397,39.42654 0,54.45307c-8.3942,7.24752 -19.58646,11.25782 -31.50622,11.25782zm-9.28958,-67.98178c-6.60344,0 -12.8711,2.22257 -17.57185,6.28119c-9.68131,8.35881 -9.68131,21.93584 0,30.29465l9.34554,8.06891c4.70075,4.05861 10.91246,6.28119 17.57185,6.28119c6.60344,0 12.8711,-2.22257 17.57185,-6.28119c9.68131,-8.35881 9.68131,-21.93584 0,-30.29465l-9.34554,-8.06891c-4.70075,-4.05861 -10.96842,-6.28119 -17.57185,-6.28119z"/>
   </g>
   <path stroke="null" id="svg_53" fill="#ACB3BA" d="m327.33104,316.69149c-2.51826,0 -5.03652,-0.82139 -6.99516,-2.51248l-60.6061,-52.32713c-3.86133,-3.33386 -3.86133,-8.74535 0,-12.07921s10.129,-3.33386 13.99033,0l60.6061,52.32713c3.86133,3.33386 3.86133,8.74535 0,12.07921c-1.95865,1.69109 -4.47691,2.51248 -6.99516,2.51248z"/>
   <g stroke="null" id="svg_54"/>
   <g stroke="null" id="svg_55"/>
   <g stroke="null" id="svg_56"/>
   <g stroke="null" id="svg_57"/>
   <g stroke="null" id="svg_58"/>
   <g stroke="null" id="svg_59"/>
   <g stroke="null" id="svg_60"/>
   <g stroke="null" id="svg_61"/>
   <g stroke="null" id="svg_62"/>
   <g stroke="null" id="svg_63"/>
   <g stroke="null" id="svg_64"/>
   <g stroke="null" id="svg_65"/>
   <g stroke="null" id="svg_66"/>
   <g stroke="null" id="svg_67"/>
   <g stroke="null" id="svg_68"/>
  </g>
 </g>

</svg>