<svg width="512" height="512" xmlns="http://www.w3.org/2000/svg">
 <g stroke="null">
  <title>Layer 1</title>
  <circle cx="256" cy="256" r="256" fill="#E05B49" id="svg_1" stroke="null"/>
  <path d="m504.619,317.035l-152.598,-152.603l-0.005,0.005c-24.427,-33.381 -63.888,-55.083 -108.443,-55.083c-74.133,0 -134.24,60.107 -134.24,134.24c0,37.568 15.456,71.52 40.336,95.888l-0.005,0.011l165.552,165.552c93.2,-22.085 166.661,-95.066 189.403,-188.01z" opacity="0.1" id="svg_2" stroke="null"/>
  <g id="svg_26" stroke="null"/>
  <g id="svg_27" stroke="null"/>
  <g id="svg_28" stroke="null"/>
  <g id="svg_29" stroke="null"/>
  <g id="svg_30" stroke="null"/>
  <g id="svg_31" stroke="null"/>
  <g id="svg_32" stroke="null"/>
  <g id="svg_33" stroke="null"/>
  <g id="svg_34" stroke="null"/>
  <g id="svg_35" stroke="null"/>
  <g id="svg_36" stroke="null"/>
  <g id="svg_37" stroke="null"/>
  <g id="svg_38" stroke="null"/>
  <g id="svg_39" stroke="null"/>
  <g id="svg_40" stroke="null"/>
  <g id="svg_49" stroke="null">
   <path id="svg_41" fill="#F5F5F5" d="m181.41394,95.00001l181.31067,0c4.53277,0 8.24139,2.96163 8.24139,6.5814l0,269.83722c0,3.61977 -3.70863,6.5814 -8.24139,6.5814l-255.48322,0c-4.53277,0 -8.24139,-2.96163 -8.24139,-6.5814l0,-207.31396l82.41394,-69.10465l0,-0.00001z" stroke="null"/>
   <path id="svg_42" fill="#E6E6E6" d="m173.17254,164.10466c4.53277,0 8.24139,-2.96163 8.24139,-6.5814l0,-62.52326l-82.41394,69.10465l74.17255,0l0,0.00001z" stroke="null"/>
  </g>
  <g stroke="null" id="svg_14">
   <path stroke="null" d="m391.53714,204.57963l-18.24726,-18.12911c-1.36532,-1.35648 -3.21531,-2.11685 -5.14337,-2.11685l-173.53853,0c-4.0179,0 -7.274,3.23502 -7.274,7.2269l0,190.54813c0,3.99188 3.25611,7.2269 7.274,7.2269l191.79001,0c4.0179,0 7.274,-3.23502 7.274,-7.2269l0,-172.41903c-0.00352,-1.91557 -0.76883,-3.75357 -2.13486,-5.11006l0.00001,0z" fill="#3A556A" id="svg_3"/>
   <path stroke="null" d="m391.53714,204.57963l-18.24726,-18.12911c-1.36532,-1.35648 -3.21531,-2.11685 -5.14337,-2.11685l-173.53853,0c-4.0179,0 -7.274,3.23502 -7.274,7.2269l0,183.0934c0,3.99188 3.25611,7.2269 7.274,7.2269l191.79001,0c4.0179,0 7.274,-3.23502 7.274,-7.2269l0,-164.9643c-0.00352,-1.91557 -0.76883,-3.75357 -2.13486,-5.11006l0.00001,0.00001z" fill="#64798A" id="svg_4"/>
   <circle stroke="null" cx="290.50089" cy="301.69659" r="32.72482" fill="#3A556A" id="svg_5"/>
   <path stroke="null" d="m233.54476,189.38014l0,53.89602c0,3.15675 2.57731,5.71737 5.75463,5.71737l102.4058,0c3.17732,0 5.75111,-2.56062 5.75111,-5.71737l0,-53.89602l-113.91155,0z" fill="#D5D6DB" id="svg_6"/>
   <path stroke="null" d="m233.54476,184.33298l0,53.89602c0,3.15675 2.57731,5.71737 5.75463,5.71737l102.4058,0c3.17732,0 5.75111,-2.56062 5.75111,-5.71737l0,-53.89602l-113.91155,0z" fill="#EBF0F3" id="svg_7"/>
   <rect stroke="null" x="319.50404" y="193.80043" width="14.85962" height="40.65683" fill="#64798A" id="svg_8"/>
   <circle stroke="null" cx="290.50089" cy="301.69659" r="30.08042" fill="#EBF0F3" id="svg_9"/>
   <g stroke="null" id="svg_12">
    <path stroke="null" d="m293.15346,296.86607l-5.30092,0c-1.21901,0 -2.20943,0.98399 -2.20943,2.19512l0,5.2666c0,1.21113 0.9904,2.19512 2.20943,2.19512l5.30092,0c1.21901,0 2.20943,-0.98399 2.20943,-2.19512l0,-5.2666c-0.00352,-1.21113 -0.9904,-2.19512 -2.20943,-2.19512z" fill="#64798A" id="svg_10"/>
    <path stroke="null" d="m316.02636,291.3982l-7.21422,0c-1.65795,0 -3.00498,1.33832 -3.00498,2.98553l0,14.62223c0,1.64721 1.34704,2.98553 3.00498,2.98553l7.21422,0c1.65795,0 3.00498,-1.33832 3.00498,-2.98553l0,-14.62223c0,-1.64721 -1.34704,-2.98553 -3.00498,-2.98553z" fill="#64798A" id="svg_11"/>
   </g>
   <path stroke="null" d="m227.21966,354.94406l-25.9419,0c-1.30554,0 -2.36699,1.05458 -2.36699,2.35166l0,12.53823c0,1.29708 1.05794,2.35166 2.36699,2.35166l25.9419,0c1.30554,0 2.36699,-1.05108 2.36699,-2.35166l0,-12.53823c0.0007,-1.29638 -1.06146,-2.35166 -2.36699,-2.35166z" fill="#3A556A" id="svg_13"/>
  </g>
 </g>

</svg>